<svg width="84" height="84" viewBox="0 0 84 84" fill="none" xmlns="http://www.w3.org/2000/svg">
<g clip-path="url(#clip0_105_1124)">
<path d="M22.2495 31.5C13.02 33.88 7 37.9575 7 42.6125C7 49.987 22.4175 56 41.475 56C44.065 56 45.885 55.8635 48.3 55.6605" stroke="#02D1F5" stroke-width="7" stroke-linecap="round" stroke-linejoin="round"/>
<path d="M34.4295 55.6499C32.984 53.5639 31.6085 51.6844 30.2995 49.3499C20.671 32.1999 18.0915 15.1549 24.5945 11.2944C28.6195 8.85492 35.259 12.1799 42.0035 19.1834" stroke="#02D1F5" stroke-width="7" stroke-linecap="round" stroke-linejoin="round"/>
<path d="M22.5015 53.8545C20.0445 63.2625 20.5415 70.3605 24.4615 72.737C30.702 76.517 43.316 65.884 52.612 48.923C53.872 46.578 55.0025 44.2715 56 42" stroke="#02D1F5" stroke-width="7" stroke-linecap="round" stroke-linejoin="round"/>
<path d="M42 64.8199C48.748 71.8199 55.3595 75.1449 59.423 72.7054C65.898 68.8484 63.3465 51.8034 53.7075 34.6499C52.3635 32.2804 50.988 30.4359 49.5775 28.3499" stroke="#02D1F5" stroke-width="7" stroke-linecap="round" stroke-linejoin="round"/>
<path d="M61.8101 52.5C70.9521 50.0955 77.0001 46.025 77.0001 41.384C77.0001 33.999 61.5721 28 42.5426 28C39.9281 28 38.1116 28.1015 35.7001 28.3045" stroke="#02D1F5" stroke-width="7" stroke-linecap="round" stroke-linejoin="round"/>
<path d="M28 42C28.9975 39.69 30.1245 37.422 31.388 35.077C40.6525 18.123 53.2735 7.46201 59.549 11.2735C63.434 13.65 63.966 20.7445 61.509 30.149" stroke="#02D1F5" stroke-width="7" stroke-linecap="round" stroke-linejoin="round"/>
<path d="M42.91 42.0524H42.875C42.84 42.5074 42.455 42.8924 41.965 42.8924C41.7306 42.8808 41.5095 42.7802 41.3469 42.611C41.1843 42.4419 41.0924 42.217 41.09 41.9824C41.09 41.4924 41.475 41.1074 41.93 41.1074H41.895C42.35 41.0724 42.77 41.4924 42.77 41.9474" stroke="#02D1F5" stroke-width="7" stroke-linecap="round" stroke-linejoin="round"/>
</g>
<defs>
<clipPath id="clip0_105_1124">
<rect width="84" height="84" fill="white"/>
</clipPath>
</defs>
</svg>
