<svg width="58" height="64" viewBox="0 0 58 64" fill="none" xmlns="http://www.w3.org/2000/svg">
<path d="M0 0C21.608 0 34.1462 0 56.409 0C56.409 21.608 52.8696 33.4826 52.8696 55.7454C25.6606 70.5665 25.2181 62.1605 3.7606 55.7454C3.7606 34.1374 0 22.2628 0 0Z" fill="#1B73B9"/>
<path d="M9.29089 7.96356C22.8689 7.96356 36.4468 7.96356 50.4363 7.96356C50.4363 10.5916 50.4363 13.2196 50.4363 15.9272C44.71 18.3565 38.9628 20.7099 33.1818 23.006C40.8468 23.225 40.8468 23.225 48.6666 23.4484C48.6666 30.9898 48.6666 30.9898 48.2518 34.0112C47.8755 37.0282 47.6291 40.0297 47.4906 43.0669C47.4061 44.8162 47.2203 46.5027 46.8969 48.2241C43.8002 49.3985 40.6766 50.4478 37.5081 51.4088C35.9043 51.8968 34.3499 52.4399 32.7946 53.0631C30.5485 53.7992 28.7668 53.2942 26.5454 52.6483C26.1238 52.5278 26.1238 52.5278 25.6936 52.4049C24.0794 51.9425 22.4691 51.4682 20.8613 50.9841C18.946 50.4086 17.0199 49.8793 15.0873 49.3647C14.328 49.1558 13.5774 48.9156 12.8303 48.6665C12.6809 47.026 12.5341 45.3853 12.3879 43.7446C12.3457 43.2815 12.3035 42.8184 12.26 42.3413C12.0673 40.1668 11.8849 38.0219 11.9454 35.8362C13.2635 35.8244 14.5815 35.8156 15.8996 35.8086C16.4638 35.803 16.4638 35.803 17.0394 35.7974C17.3972 35.7959 17.7551 35.7945 18.1238 35.793C18.4551 35.7907 18.7864 35.7884 19.1278 35.786C19.9091 35.8362 19.9091 35.8362 20.3515 36.2787C20.4556 37.3183 20.5346 38.3605 20.6003 39.4033C20.6374 39.9742 20.6745 40.545 20.7127 41.1332C20.7395 41.5752 20.7663 42.0172 20.7939 42.4726C21.5604 42.5547 21.5604 42.5547 22.3424 42.6385C23.6284 42.7945 24.8299 43.0318 26.0753 43.3851C29.6676 44.304 32.7651 43.679 36.315 42.7629C37.606 42.4726 37.606 42.4726 39.3757 42.4726C39.3706 42.1509 39.3654 41.8293 39.3601 41.4979C39.3561 41.053 39.3522 40.6082 39.348 40.1499C39.3429 39.7187 39.3378 39.2876 39.3325 38.8433C39.3925 36.5089 39.6242 34.1816 39.8181 31.8544C30.4741 31.8544 21.1301 31.8544 11.503 31.8544C10.9036 28.8575 10.5102 26.8069 10.6182 23.8908C10.8936 23.7773 11.1691 23.6638 11.4529 23.5469C15.6838 21.7943 19.8906 19.9861 24.0979 18.178C25.5033 17.5744 26.9093 16.9721 28.3151 16.3696C19.3361 16.1506 19.3361 16.1506 10.1757 15.9272C9.29089 12.8302 9.29089 12.8302 9.29089 7.96356Z" fill="#FAFCFC"/>
<path d="M31.9802 0.38916C32.4272 0.390143 32.8742 0.391125 33.3348 0.392137C34.0921 0.392187 34.0921 0.392187 34.8646 0.392239C35.414 0.394522 35.9633 0.396805 36.5293 0.399158C37.368 0.400097 37.368 0.400097 38.2236 0.401055C39.7124 0.403118 41.2013 0.407096 42.6902 0.411985C44.2085 0.416505 45.7268 0.41853 47.2451 0.420761C50.226 0.425652 53.2069 0.433065 56.1877 0.442364C56.2607 1.0819 56.9278 0.360398 57 1.00002C57.0403 1.35619 57 13 56.5276 3.44042C56.9384 7.38206 56.9989 12.1665 55.7453 15.9272C55.6551 17.0992 55.5808 18.2654 55.5241 19.4389C55.361 22.7938 55.361 22.7938 55.0858 23.798C54.7685 25.1748 54.7357 26.5238 54.6704 27.9348C54.6385 28.5825 54.6064 29.2301 54.5742 29.8778C54.5579 30.2183 54.5415 30.5588 54.5246 30.9096C54.1354 38.9199 53.4697 46.8836 52.6484 54.8605C50.6774 55.0795 50.6774 55.0795 48.6665 55.3029C48.6665 55.5949 48.6665 55.8869 48.6665 56.1877C46.9051 56.7749 45.1933 56.6607 43.3575 56.6301C43.3575 56.9221 43.3575 57.2141 43.3575 57.515C40.99 58.1491 38.7156 58.5812 36.2787 58.8423C36.2787 59.1343 36.2787 59.4263 36.2787 59.7271C34.2714 60.3694 32.6594 60.716 30.5272 60.612C30.0395 58.6612 30.0509 56.8585 30.0848 54.8605C29.5008 54.5685 28.9168 54.2765 28.3151 53.9756C28.8169 53.9209 29.3188 53.8661 29.8359 53.8097C30.6161 53.6728 30.6161 53.6728 31.412 53.5332C31.631 53.0952 31.631 53.0952 31.8545 52.6483C32.9045 52.237 32.9045 52.237 34.2895 51.8188C34.7911 51.6659 35.2927 51.5131 35.8095 51.3556C36.3384 51.1982 36.8674 51.0408 37.4124 50.8786C37.9294 50.7212 38.4464 50.5638 38.979 50.4017C41.6044 49.608 44.2282 48.8575 46.8969 48.2241C46.9056 47.9576 46.9144 47.691 46.9234 47.4164C47.0996 42.2877 47.3512 37.209 48.0029 32.1171C48.3165 29.2361 48.4738 26.34 48.6665 23.4484C43.1186 23.4484 37.5706 23.4484 31.8545 23.4484C33.1483 22.5858 34.3306 22.0558 35.7689 21.4748C36.2836 21.266 36.7983 21.0573 37.3286 20.8422C37.8672 20.6255 38.4059 20.4088 38.9609 20.1855C39.4876 19.9722 40.0142 19.7589 40.5569 19.5392C41.5931 19.1199 42.6298 18.7018 43.667 18.2849C44.6019 17.9084 45.5356 17.5293 46.468 17.1469C46.8645 16.9851 47.2609 16.8232 47.6694 16.6565C48.0141 16.5147 48.3588 16.3729 48.714 16.2268C49.5514 15.9272 49.5514 15.9272 50.4362 15.9272C50.4362 13.1532 50.4362 10.3792 50.4362 7.52114C43.8662 7.52114 37.2963 7.52114 30.5272 7.52114C30.3812 7.22914 30.2352 6.93714 30.0848 6.63629C30.3768 6.63629 30.6688 6.63629 30.9696 6.63629C30.8236 6.34429 30.6776 6.05229 30.5272 5.75145C30.4848 4.93201 30.4697 4.111 30.4719 3.29047C30.4707 2.8519 30.4696 2.41333 30.4684 1.96147C30.5453 0.552715 30.5747 0.463155 31.9802 0.38916Z" fill="#1C87C7"/>
<path d="M30.0848 32.2969C33.1508 32.2969 36.2168 32.2969 39.3757 32.2969C39.7885 35.7831 39.7712 38.9862 39.3757 42.4726C31.1686 44.5833 31.1686 44.5833 27.8727 44.2423C27.4347 43.9503 26.9967 43.6583 26.5454 43.3575C27.4214 43.0655 28.2974 42.7735 29.2 42.4726C28.908 42.0346 28.616 41.5966 28.3151 41.1453C28.8991 41.1453 29.4831 41.1453 30.0848 41.1453C30.0848 38.2253 30.0848 35.3054 30.0848 32.2969Z" fill="#1B87C7"/>
<path d="M9.29089 7.96356C22.8689 7.96356 36.4468 7.96356 50.4363 7.96356C50.4363 8.10956 50.4363 8.25556 50.4363 8.40599C37.0043 8.40599 23.5723 8.40599 9.73332 8.40599C10.1713 8.55199 10.6093 8.69798 11.0606 8.84841C11.1402 11.1578 11.0477 12.8624 10.1757 15.0423C10.0297 15.0423 9.88374 15.0423 9.73332 15.0423C9.29089 12.8302 9.29089 12.8302 9.29089 7.96356Z" fill="#C6E8FC"/>
<path d="M38.4908 40.7029C38.6368 41.2869 38.7828 41.8709 38.9333 42.4726C31.2462 44.5854 31.2462 44.5854 27.8727 44.2423C27.4347 43.9503 26.9967 43.6583 26.5454 43.3575C27.4214 43.0655 28.2974 42.7735 29.2 42.4726C29.2 42.3266 29.2 42.1806 29.2 42.0302C31.2439 42.0302 33.2879 42.0302 35.3939 42.0302C35.3939 41.8842 35.3939 41.7382 35.3939 41.5878C36.4159 41.7338 37.4379 41.8798 38.4908 42.0302C38.4908 41.5922 38.4908 41.1542 38.4908 40.7029Z" fill="#1D80C1"/>
<path d="M39.3757 21.6787C39.5217 21.9707 39.6677 22.2627 39.8181 22.5635C43.0301 22.7095 46.2421 22.8555 49.5514 23.006C49.5514 23.152 49.5514 23.298 49.5514 23.4484C43.7114 23.4484 37.8715 23.4484 31.8545 23.4484C34.237 21.86 36.5109 20.7703 39.3757 21.6787Z" fill="#1280B6"/>
<path d="M37.606 33.1818C38.19 33.1818 38.774 33.1818 39.3757 33.1818C39.8529 36.3636 39.7269 39.2793 39.3757 42.4727C39.2297 42.4727 39.0837 42.4727 38.9332 42.4727C38.7872 41.0127 38.6412 39.5527 38.4908 38.0485C38.3448 38.0485 38.1988 38.0485 38.0484 38.0485C37.9024 36.4425 37.7564 34.8365 37.606 33.1818Z" fill="#2D8FC8"/>
<path d="M11.5031 16.3696C16.905 16.3696 22.307 16.3696 27.8727 16.3696C26.6211 17.6213 26.3767 17.8633 24.7758 18.1393C24.7758 17.8473 24.7758 17.5553 24.7758 17.2545C18.2058 17.0355 18.2058 17.0355 11.5031 16.8121C11.5031 16.6661 11.5031 16.5201 11.5031 16.3696Z" fill="#206CAD"/>
<path d="M11.9454 35.8362C14.5734 35.8362 17.2014 35.8362 19.9091 35.8362C19.9091 35.9822 19.9091 36.1282 19.9091 36.2787C16.4051 36.4977 16.4051 36.4977 12.8303 36.7211C12.8303 38.7651 12.8303 40.8091 12.8303 42.915C12.6843 42.915 12.5383 42.915 12.3879 42.915C12.2419 40.579 12.0959 38.243 11.9454 35.8362Z" fill="#B9DBEB"/>
<path d="M32.7394 23.8909C37.8494 23.8909 42.9594 23.8909 48.2242 23.8909C48.2242 24.3289 48.2242 24.7669 48.2242 25.2182C47.9976 25.1481 47.7711 25.078 47.5377 25.0057C46.1123 24.7031 44.7381 24.6776 43.2815 24.6358C42.9796 24.6266 42.6777 24.6174 42.3666 24.6079C41.4066 24.5791 40.4465 24.553 39.4863 24.5269C38.8336 24.5078 38.181 24.4885 37.5283 24.469C35.932 24.4218 34.3357 24.3769 32.7394 24.3334C32.7394 24.1874 32.7394 24.0414 32.7394 23.8909Z" fill="#FEFAF1"/>
<path d="M9.29091 8.40607C9.87491 8.55207 10.4589 8.69807 11.0606 8.84849C11.1402 11.1578 11.0478 12.8624 10.1758 15.0424C10.0298 15.0424 9.88376 15.0424 9.73333 15.0424C9.14807 12.8477 9.25156 10.6575 9.29091 8.40607Z" fill="#DDEDF4"/>
<path d="M15.0424 34.509C15.599 34.4999 16.1556 34.4908 16.7291 34.4814C17.0422 34.4762 17.3553 34.4711 17.6779 34.4658C18.5817 34.509 18.5817 34.509 19.909 34.9514C19.909 35.2434 19.909 35.5354 19.909 35.8363C17.427 35.8363 14.945 35.8363 12.3878 35.8363C12.3878 35.6903 12.3878 35.5443 12.3878 35.3939C13.2638 35.3939 14.1398 35.3939 15.0424 35.3939C15.0424 35.1019 15.0424 34.8099 15.0424 34.509Z" fill="#126CB1"/>
<path d="M29.1999 51.7635C31.0979 51.7635 32.9959 51.7635 34.9514 51.7635C33.7329 52.5758 33.0211 52.8775 31.6332 53.2014C31.2911 53.2858 30.9489 53.3702 30.5963 53.4571C29.6423 53.5332 29.6423 53.5332 28.3151 52.6483C28.6071 52.6483 28.8991 52.6483 29.1999 52.6483C29.1999 52.3563 29.1999 52.0643 29.1999 51.7635Z" fill="#D6EAEF"/>
<path d="M21.6788 19.4666C21.8248 19.9046 21.9708 20.3426 22.1212 20.7939C21.5719 21.0419 21.0179 21.2796 20.4621 21.5128C20.1542 21.6463 19.8462 21.7797 19.5289 21.9172C18.3236 22.1767 17.8354 21.877 16.8121 21.2363C17.4564 20.9394 18.1018 20.6449 18.7477 20.3515C19.107 20.1872 19.4663 20.023 19.8365 19.8537C20.7939 19.4666 20.7939 19.4666 21.6788 19.4666Z" fill="#DCE9EF"/>
<path d="M29.1446 53.0631C29.6014 53.0661 29.6014 53.0661 30.0675 53.0692C30.8106 53.0744 31.5538 53.0823 32.2969 53.0908C31.0141 54.3735 29.6248 54.2134 27.9003 54.3075C27.5778 54.332 27.2553 54.3565 26.923 54.3818C25.1995 54.486 24.4803 54.5161 23.006 53.5332C25.0656 53.1258 27.0528 53.0368 29.1446 53.0631Z" fill="#1576C1"/>
<path d="M9.29085 25.6605C10.6209 26.9905 10.4393 28.2371 10.6181 30.0847C10.3261 29.6467 10.0341 29.2087 9.73328 28.7574C9.29528 29.1954 8.85728 29.6334 8.40601 30.0847C8.40601 28.9167 8.40601 27.7487 8.40601 26.5453C8.69801 26.5453 8.99 26.5453 9.29085 26.5453C9.29085 26.2533 9.29085 25.9613 9.29085 25.6605Z" fill="#1576C1"/>
<path d="M38.9333 49.1091C40.3933 49.1091 41.8533 49.1091 43.3575 49.1091C42.0945 49.9511 41.4023 50.1983 39.9564 50.4916C39.5988 50.5658 39.2412 50.6399 38.8728 50.7163C38.6008 50.7699 38.3287 50.8235 38.0485 50.8788C38.3405 50.2948 38.6325 49.7108 38.9333 49.1091Z" fill="#E0EEF7"/>
<path d="M20.7939 17.697C21.9553 18.1117 21.9553 18.1117 23.006 18.5818C22.0053 19.5825 21.2497 19.9264 19.9091 20.3515C19.4711 20.2055 19.0331 20.0595 18.5818 19.9091C18.8738 19.7631 19.1658 19.6171 19.4666 19.4667C19.6126 19.0287 19.7586 18.5907 19.9091 18.1394C20.2011 17.9934 20.4931 17.8474 20.7939 17.697Z" fill="#2073B1"/>
<path d="M19.9091 36.2786C20.0551 36.2786 20.2011 36.2786 20.3515 36.2786C20.4975 38.1766 20.6435 40.0746 20.7939 42.0301C20.6479 41.7381 20.5019 41.4461 20.3515 41.1453C19.4557 40.8568 19.4557 40.8568 18.5818 40.7029C18.7187 40.4656 18.8555 40.2284 18.9966 39.9839C19.5455 38.7569 19.7281 37.6057 19.9091 36.2786Z" fill="#DBECF1"/>
<path d="M48.6665 16.3696C48.8125 16.6616 48.9585 16.9536 49.109 17.2545C48.6665 17.9181 48.6665 17.9181 47.7817 18.5817C46.579 18.7027 45.456 18.6414 44.2423 18.5817C45.6251 17.4117 46.9357 16.881 48.6665 16.3696Z" fill="#348CBC"/>
<path d="M32.8223 42.8874C33.6572 42.9011 33.6572 42.9011 34.509 42.9151C33.4482 43.9758 33.0345 43.9516 31.5779 44.0764C31.2164 44.1095 30.8548 44.1426 30.4822 44.1767C30.2051 44.1983 29.9279 44.22 29.6423 44.2423C29.6423 43.9503 29.6423 43.6583 29.6423 43.3575C30.8593 42.9518 31.5711 42.8669 32.8223 42.8874Z" fill="#3391BF"/>
<path d="M37.606 20.7939C36.6202 21.7797 35.9878 21.9851 34.675 22.3977C34.3134 22.5129 33.9518 22.6281 33.5793 22.7468C33.3021 22.8323 33.025 22.9179 32.7394 23.006C33.1818 21.6787 33.1818 21.6787 33.9284 21.1534C35.1947 20.7084 36.2736 20.7333 37.606 20.7939Z" fill="#DBEEFA"/>
<path d="M28.2909 42.8286C29.1838 42.8574 30.0767 42.8862 30.9696 42.915C30.5316 43.061 30.0936 43.207 29.6424 43.3574C29.6424 43.6494 29.6424 43.9414 29.6424 44.2423C28.6204 44.0963 27.5984 43.9503 26.5454 43.7999C27.4303 42.915 27.4303 42.915 28.2909 42.8286Z" fill="#247DBA"/>
<path d="M23.4485 16.3696C24.9085 16.3696 26.3685 16.3696 27.8727 16.3696C26.6211 17.6213 26.3767 17.8633 24.7758 18.1393C24.7758 17.8473 24.7758 17.5553 24.7758 17.2545C24.3378 16.9625 23.8998 16.6705 23.4485 16.3696Z" fill="#2F75B0"/>
<path d="M8.84843 9.7334C8.99443 9.7334 9.14043 9.7334 9.29085 9.7334C9.43685 11.7774 9.58285 13.8214 9.73328 15.9273C9.58728 15.9273 9.44128 15.9273 9.29085 15.9273C9.29085 15.1973 9.29085 14.4673 9.29085 13.7152C8.99885 13.7152 8.70685 13.7152 8.40601 13.7152C8.55201 12.4012 8.69801 11.0872 8.84843 9.7334Z" fill="#146AAC"/>
</svg>
