<svg width="53" height="80" viewBox="0 0 53 80" fill="none" xmlns="http://www.w3.org/2000/svg">
<path d="M17.8229 27.2051C19.0768 27.2321 19.0768 27.2321 20.3561 27.2598C22.408 27.3067 24.4594 27.3784 26.5104 27.4551C26.8404 29.4351 27.1704 31.4151 27.5104 33.4551C27.9113 33.022 28.3122 32.5888 28.7252 32.1426C32.0319 28.9034 34.3952 27.0117 39.1354 26.8926C43.95 27.2447 46.7985 28.8043 50.2604 32.1426C52.0585 35.4691 52.6331 38.7169 52.5104 42.4551C50.995 46.6024 49.1314 49.8823 45.5104 52.4551C41.0136 53.708 37.5545 53.8225 33.1354 52.2676C30.5813 50.504 29.279 48.9528 27.5104 46.4551C27.5011 47.1152 27.4917 47.7752 27.4821 48.4553C27.428 51.4768 27.3445 54.4968 27.2604 57.5176C27.2391 59.0751 27.2391 59.0751 27.2174 60.6641C27.0129 67.1061 26.3322 71.2072 22.5104 76.4551C19.0929 79.3979 16.0178 79.9987 11.5026 79.8027C8.08299 79.206 6.0784 77.7245 3.5104 75.4551C0.913148 71.6458 -0.137629 68.1389 0.0143105 63.4824C0.956784 59.6309 3.71906 57.1307 6.5104 54.4551C7.1704 53.7951 7.8304 53.1351 8.5104 52.4551C7.74728 52.0838 6.98415 51.7126 6.1979 51.3301C2.86854 49.0073 1.8981 47.253 0.510404 43.4551C-0.0184099 38.4313 0.377321 35.4525 3.5104 31.4551C7.98095 26.7696 11.7384 26.9554 17.8229 27.2051Z" fill="#A159FA"/>
<path d="M24.3205 0.0844754C26.3729 0.0801074 28.4232 0.043763 30.4753 0.00586209C42.931 -0.0309529 42.931 -0.0309529 48.5104 4.45508C51.0364 7.05534 52.3587 9.85459 52.7018 13.4746C52.3621 18.8581 50.2646 21.7009 46.5104 25.4551C43.312 27.0543 39.8399 26.6181 36.3268 26.623C35.1099 26.628 35.1099 26.628 33.8683 26.6331C32.151 26.6382 30.4336 26.6405 28.7162 26.6404C26.0869 26.6426 23.458 26.6607 20.8288 26.6797C19.1615 26.6826 17.4942 26.6846 15.8268 26.6855C14.6455 26.6963 14.6455 26.6963 13.4403 26.7073C9.59738 26.6912 7.78442 26.6377 4.51043 24.4551C4.51043 23.7951 4.51043 23.1351 4.51043 22.4551C3.85043 22.4551 3.19043 22.4551 2.51043 22.4551C0.411496 18.2572 -0.495544 14.0738 0.510426 9.45508C6.10349 -0.122342 14.1101 0.0820414 24.3205 0.0844754Z" fill="#EE4D1C"/>
<path d="M26.5104 1.4551C29.3773 1.3726 32.2441 1.2901 35.1979 1.2051C36.0921 1.16869 36.9863 1.13227 37.9076 1.09475C41.909 1.03911 43.9973 1.13603 47.4752 3.29885C51.1727 7.21632 52.5104 10.0184 52.5104 15.4551C51.7449 19.9361 49.6851 22.2804 46.5104 25.4551C44.2138 26.6034 42.9272 26.5707 40.3776 26.5528C39.6517 26.5503 38.9258 26.5478 38.1779 26.5452C37.2563 26.5361 36.3348 26.527 35.3854 26.5176C32.4566 26.497 29.5279 26.4764 26.5104 26.4551C26.5104 18.2051 26.5104 9.9551 26.5104 1.4551Z" fill="#FD7262"/>
<path d="M12.6432 53.3574C13.4489 53.3607 14.2546 53.3639 15.0847 53.3672C16.3473 53.3798 16.3473 53.3798 17.6354 53.3926C18.9097 53.3994 18.9097 53.3994 20.2097 53.4063C22.3099 53.4181 24.4102 53.436 26.5104 53.4551C27.2656 70.9288 27.2656 70.9288 22.5104 76.4551C19.0929 79.3979 16.0179 79.9987 11.5026 79.8027C8.08302 79.206 6.07843 77.7245 3.51043 75.4551C0.914195 71.6473 -0.137843 68.1413 0.0143393 63.4863C0.949209 59.6585 3.6333 57.0266 6.51043 54.4551C8.80697 53.3068 10.0936 53.3395 12.6432 53.3574Z" fill="#03CE80"/>
<path d="M43.5105 27.455C47.2003 29.0593 49.5908 30.9036 51.5105 34.455C52.5412 39.0196 52.9289 41.3099 51.323 45.705C47.1809 51.9896 47.1809 51.9896 43.4636 53.0254C38.3002 53.8397 34.9256 53.5354 30.5105 50.455C27.9094 48.1962 26.7261 46.5498 26.0573 43.1543C25.7302 38.2551 26.1794 35.2037 29.3855 31.3925C33.6859 26.9779 37.5345 26.875 43.5105 27.455Z" fill="#19BBF9"/>
<path d="M11.5104 26.4551C21.7404 26.4551 31.9704 26.4551 42.5104 26.4551C42.5104 26.7851 42.5104 27.1151 42.5104 27.4551C41.5146 27.5672 41.5146 27.5672 40.4987 27.6816C34.1665 28.5751 34.1665 28.5751 29.4479 32.5801C28.8085 33.5288 28.1691 34.4776 27.5104 35.4551C27.1804 35.4551 26.8504 35.4551 26.5104 35.4551C26.5104 32.8151 26.5104 30.1751 26.5104 27.4551C21.5604 27.4551 16.6104 27.4551 11.5104 27.4551C11.5104 27.1251 11.5104 26.7951 11.5104 26.4551Z" fill="#C05C73"/>
<path d="M26.5104 27.4551C29.1504 27.4551 31.7904 27.4551 34.5104 27.4551C31.8437 30.1217 29.177 32.7884 26.5104 35.4551C26.5104 32.8151 26.5104 30.1751 26.5104 27.4551Z" fill="#0D1F1F"/>
</svg>
