<svg width="56" height="65" viewBox="0 0 56 65" fill="none" xmlns="http://www.w3.org/2000/svg">
<path d="M0 0C18.4731 0 36.9462 0 55.9791 0C55.9791 9.53544 55.9791 9.53544 55.6279 13.0737C55.5734 13.6448 55.5734 13.6448 55.5178 14.2274C55.4044 15.4107 55.2857 16.5934 55.1662 17.7762C55.0117 19.342 54.8596 20.908 54.709 22.4742C54.6718 22.8579 54.6346 23.2416 54.5963 23.6369C54.2662 27.1262 54.052 30.6182 53.8617 34.1176C53.6605 37.0021 53.2739 39.8469 52.8934 42.7132C52.261 47.6826 51.8847 52.6851 51.4555 57.6754C47.2832 59.4567 43.0669 60.8119 38.6976 62.0223C38.0916 62.1961 37.4855 62.3699 36.861 62.549C30.0495 64.4529 25.753 64.5387 18.8717 62.623C18.1997 62.4459 17.5276 62.2688 16.8352 62.0863C13.5395 61.1998 10.4627 60.1948 7.35079 58.8063C6.41158 58.6024 5.4694 58.4113 4.52356 58.2408C4.33722 56.1985 4.15096 54.1561 3.96474 52.1137C3.9065 51.4749 3.84825 50.8362 3.78825 50.178C3.27154 44.5082 2.75776 38.8382 2.24441 33.168C1.92056 29.5958 1.59382 26.0238 1.25965 22.4525C1.09762 20.7177 0.938198 18.9826 0.779368 17.2474C0.675346 16.1218 0.567663 14.9966 0.459838 13.8714C0.0342422 9.18948 0 4.74345 0 0Z" fill="#E35126"/>
<path d="M10.178 11.8744C21.9336 11.8744 33.6892 11.8744 45.801 11.8744C45.801 15.8325 45.801 15.8325 45.2355 18.6597C36.2789 18.6597 27.3222 18.6597 18.0942 18.6597C18.2808 21.0855 18.4674 23.5112 18.6596 26.0105C27.2431 26.0105 35.8265 26.0105 44.6701 26.0105C44.1103 33.4744 43.5505 40.9383 42.9738 48.6283C39.9882 49.3747 37.0027 50.1211 33.9266 50.8901C32.8071 51.4499 32.8071 51.4499 31.6649 52.021C25.3455 53.1483 18.9475 50.5122 13.0052 48.6283C12.5935 44.6481 12.3817 40.7568 12.4397 36.754C14.8655 36.754 17.2913 36.754 19.7905 36.754C19.7905 38.8065 19.7905 40.8591 19.7905 42.9739C21.0169 43.108 22.2433 43.2412 23.4703 43.3692C24.6779 43.515 25.8765 43.7323 27.0706 43.9634C30.0797 44.3715 32.774 43.2987 35.623 42.4084C35.9962 39.4229 36.3694 36.4373 36.7539 33.3613C28.5436 33.3613 20.3333 33.3613 11.8743 33.3613C11.5944 30.9705 11.3145 28.5798 11.0261 26.1165C10.9376 25.3761 10.849 24.6357 10.7578 23.8728C10.6889 23.2685 10.62 22.6641 10.549 22.0414C10.478 21.4343 10.4069 20.8273 10.3337 20.2019C10.1291 17.4331 10.178 14.6507 10.178 11.8744Z" fill="#F7F7F6"/>
<path d="M28.2722 4.52356C35.9227 4.52356 43.5732 4.52356 51.4555 4.52356C50.89 11.3089 50.89 11.3089 50.3246 13.5707C50.3047 14.6918 50.3121 15.8136 50.3378 16.9346C50.3664 20.7325 50.0163 24.4018 49.5471 28.1662C48.874 33.8586 48.3093 39.5471 47.8632 45.2617C47.6122 48.4662 47.3041 51.6553 46.9319 54.8482C45.5903 55.2305 44.2474 55.6065 42.9031 55.9791C42.527 56.0869 42.1509 56.1948 41.7634 56.306C39.4688 56.9358 37.4342 57.2284 35.0576 57.1099C35.0576 57.4831 35.0576 57.8563 35.0576 58.2408C34.6625 58.3159 34.2674 58.391 33.8604 58.4683C33.0885 58.6181 33.0885 58.6181 32.301 58.7709C31.5335 58.9185 31.5335 58.9185 30.7505 59.0691C29.4034 59.315 29.4034 59.315 28.2722 59.9372C28.2722 58.0712 28.2722 56.2052 28.2722 54.2827C27.899 54.0961 27.5258 53.9095 27.1413 53.7173C27.1413 53.1575 27.1413 52.5977 27.1413 52.0209C27.7944 51.9626 28.4475 51.9043 29.1204 51.8442C31.658 51.5304 33.8341 50.7205 36.1885 49.7592C38.5957 48.8444 40.408 48.5821 42.9738 48.6283C42.985 48.144 42.9962 47.6598 43.0078 47.1608C43.0523 45.3375 43.1013 43.5144 43.1533 41.6914C43.1747 40.9073 43.1944 40.1232 43.2123 39.339C43.2386 38.2018 43.2713 37.0649 43.3051 35.9278C43.3229 35.2468 43.3406 34.5657 43.3589 33.864C43.5758 31.2188 44.1496 28.613 44.6701 26.0105C36.0867 26.0105 27.5032 26.0105 18.6597 26.0105C18.0942 23.7487 18.0942 23.7487 18.0942 18.6597C27.0509 18.6597 36.0075 18.6597 45.2356 18.6597C45.4222 16.4205 45.6088 14.1814 45.801 11.8743C34.0454 11.8743 22.2898 11.8743 10.178 11.8743C10.178 11.6877 10.178 11.5012 10.178 11.3089C16.1491 11.1223 22.1202 10.9357 28.2722 10.7435C28.2722 8.69089 28.2722 6.63832 28.2722 4.52356Z" fill="#EE6832"/>
<path d="M12.4398 18.0942C12.6264 18.0942 12.813 18.0942 13.0052 18.0942C13.0052 19.587 13.0052 21.0798 13.0052 22.6178C13.3784 22.6178 13.7516 22.6178 14.1361 22.6178C14.3227 22.058 14.5093 21.4982 14.7016 20.9215C15.0748 21.1081 15.448 21.2947 15.8325 21.4869C15.8325 22.6065 15.8325 23.7261 15.8325 24.8796C16.6796 22.9735 16.9633 21.9368 16.9633 19.7906C16.217 19.9772 15.4706 20.1638 14.7016 20.356C15.0748 19.6096 15.448 18.8632 15.8325 18.0942C15.8325 18.4674 15.8325 18.8406 15.8325 19.2251C16.5788 19.0385 17.3252 18.8519 18.0942 18.6597C18.2808 21.0854 18.4674 23.5112 18.6597 26.0105C27.2431 26.0105 35.8266 26.0105 44.6702 26.0105C44.4836 26.7569 44.297 27.5032 44.1047 28.2722C44.1047 27.7125 44.1047 27.1527 44.1047 26.5759C38.88 26.7625 33.6553 26.9491 28.2722 27.1414C28.2722 28.8207 28.2722 30.5001 28.2722 32.2304C31.0712 32.417 33.8702 32.6036 36.7539 32.7958C36.7539 32.9824 36.7539 33.169 36.7539 33.3613C28.5437 33.3613 20.3334 33.3613 11.8743 33.3613C11.5251 30.5672 11.2392 28.1934 11.2736 25.445C11.2787 24.9086 11.2838 24.3721 11.289 23.8194C11.2956 23.4229 11.3021 23.0263 11.3089 22.6178C11.6821 22.6178 12.0553 22.6178 12.4398 22.6178C12.4398 21.125 12.4398 19.6322 12.4398 18.0942Z" fill="#EFE8E5"/>
<path d="M18.0943 19.2251C27.4241 19.2251 36.754 19.2251 46.3665 19.2251C46.3665 19.5983 46.3665 19.9715 46.3665 20.356C45.9933 20.356 45.6201 20.356 45.2356 20.356C45.2356 20.9158 45.2356 21.4756 45.2356 22.0523C45.6088 22.4255 45.982 22.7987 46.3665 23.1832C45.8067 23.1832 45.2469 23.1832 44.6702 23.1832C44.6702 23.9296 44.6702 24.676 44.6702 25.445C27.0769 26.1201 27.0769 26.1201 18.6597 26.0104C17.8631 23.6207 18.0943 21.9907 18.0943 19.2251Z" fill="#F1642B"/>
<path d="M12.4397 36.7539C14.8655 36.7539 17.2913 36.7539 19.7905 36.7539C19.7905 38.8065 19.7905 40.859 19.7905 42.9738C20.9451 43.0788 20.9451 43.0788 22.123 43.1858C24.2985 43.423 26.2204 43.881 28.2722 44.6701C28.2722 46.7227 28.2722 48.7753 28.2722 50.89C29.5784 50.89 30.8846 50.89 32.2303 50.89C32.0437 51.2632 31.8571 51.6364 31.6649 52.0209C25.1014 52.7547 19.186 50.5878 13.0052 48.6283C12.5935 44.648 12.3817 40.7567 12.4397 36.7539Z" fill="#ECE7E3"/>
<path d="M11.8744 33.3613C20.0847 33.3613 28.2949 33.3613 36.754 33.3613C36.754 40.2723 36.754 40.2723 35.6231 42.4084C32.7351 43.9931 29.8728 44.8204 26.576 44.6702C26.7626 44.297 26.9492 43.9238 27.1414 43.5393C27.5146 43.5393 27.8878 43.5393 28.2723 43.5393C28.0857 40.3672 27.8991 37.195 27.7069 33.9268C22.4821 33.9268 17.2574 33.9268 11.8744 33.9268C11.8744 33.7402 11.8744 33.5536 11.8744 33.3613Z" fill="#E96935"/>
<path d="M28.2722 11.8743C33.2065 11.8192 38.0714 11.7798 42.9738 12.4398C43.6998 14.981 43.4857 15.4009 42.4083 18.0942C37.7434 18.0942 33.0785 18.0942 28.2722 18.0942C28.2722 16.0417 28.2722 13.9891 28.2722 11.8743Z" fill="#FCFDFB"/>
<path d="M18.0942 19.2251C21.453 19.2251 24.8117 19.2251 28.2722 19.2251C28.2722 21.4643 28.2722 23.7034 28.2722 26.0104C25.1001 26.0104 21.928 26.0104 18.6597 26.0104C18.0942 23.7487 18.0942 23.7487 18.0942 19.2251Z" fill="#E55124"/>
<path d="M13.5707 37.8848C15.4366 37.8848 17.3026 37.8848 19.2251 37.8848C20.0693 39.5732 19.857 41.1126 19.7906 42.9738C19.604 43.347 19.4174 43.7202 19.2251 44.1047C19.5983 44.2913 19.9715 44.4779 20.356 44.6701C19.2251 45.2356 18.0942 45.801 16.9633 46.3664C16.5435 46.588 16.1237 46.8096 15.6911 47.0379C14.7016 47.4973 14.7016 47.4973 13.5707 47.4973C13.5707 44.3252 13.5707 41.153 13.5707 37.8848Z" fill="#EDEEF0"/>
<path d="M37.3194 11.8744C40.1183 11.8744 42.9173 11.8744 45.801 11.8744C45.801 15.8325 45.801 15.8325 45.2356 18.6597C36.4655 18.6597 27.6955 18.6597 18.6597 18.6597C18.6597 18.4731 18.6597 18.2865 18.6597 18.0943C26.4967 18.0943 34.3338 18.0943 42.4084 18.0943C43.2041 14.9515 43.2041 14.9515 42.4084 13.0053C40.729 12.8187 39.0496 12.6321 37.3194 12.4398C37.3194 12.2532 37.3194 12.0666 37.3194 11.8744Z" fill="#F9F2E5"/>
<path d="M3.95806 31.6649C4.14466 31.6649 4.33125 31.6649 4.52351 31.6649C4.99124 34.9148 5.16561 38.0499 5.14417 41.3305C5.14337 41.801 5.14257 42.2715 5.14175 42.7563C5.13861 44.2425 5.13152 45.7285 5.12429 47.2147C5.12145 48.2292 5.11887 49.2438 5.11656 50.2583C5.11036 52.7307 5.10062 55.203 5.08895 57.6754C6.0336 57.6579 6.0336 57.6579 6.99733 57.64C9.04707 57.6754 9.04707 57.6754 10.178 58.2408C10.178 58.614 10.178 58.9872 10.178 59.3717C8.31199 58.9985 6.44602 58.6253 4.52351 58.2408C3.51309 49.289 3.35398 40.6533 3.95806 31.6649Z" fill="#D7562A"/>
<path d="M54.2828 11.3088C54.656 11.3088 55.0292 11.3088 55.4137 11.3088C55.4652 14.767 55.2921 18.0909 54.8836 21.5222C54.333 26.4065 53.9746 31.28 53.7173 36.1884C53.5307 36.1884 53.3442 36.1884 53.1519 36.1884C53.1104 35.3706 53.1104 35.3706 53.068 34.5363C53.0257 33.8219 52.9834 33.1076 52.9399 32.3717C52.9005 31.6632 52.8611 30.9547 52.8206 30.2247C52.6129 28.4927 52.3619 27.4694 51.4556 26.0104C52.0154 25.1707 52.0154 25.1707 52.5865 24.3141C52.7731 24.3141 52.9597 24.3141 53.1519 24.3141C53.1661 24.0005 53.1802 23.6869 53.1948 23.3637C53.2606 21.9369 53.3299 20.5103 53.3993 19.0837C53.4326 18.3435 53.4326 18.3435 53.4667 17.5884C53.4903 17.1109 53.514 16.6335 53.5384 16.1416C53.5592 15.7034 53.5799 15.2651 53.6012 14.8136C53.7151 13.5947 53.9533 12.4861 54.2828 11.3088Z" fill="#DD6546"/>
<path d="M12.4398 36.7539C14.8655 36.7539 17.2913 36.7539 19.7905 36.7539C19.604 37.5003 19.4174 38.2467 19.2251 39.0157C19.2251 38.6425 19.2251 38.2693 19.2251 37.8848C17.3591 37.8848 15.4932 37.8848 13.5707 37.8848C13.5707 41.2435 13.5707 44.6023 13.5707 48.0628C14.6902 48.2494 15.8098 48.436 16.9633 48.6283C15.2612 49.1565 14.777 49.2189 13.0052 48.6283C12.5816 44.6494 12.3818 40.7555 12.4398 36.7539Z" fill="#EFCDB8"/>
<path d="M28.2722 25.4451C33.8701 25.4451 39.468 25.4451 45.2356 25.4451C45.9448 27.5728 45.8615 29.557 45.8364 31.771C45.8338 32.1948 45.8312 32.6187 45.8286 33.0554C45.822 34.0998 45.8118 35.1442 45.801 36.1885C45.6144 36.1885 45.4278 36.1885 45.2356 36.1885C45.049 34.6957 44.8624 33.203 44.6701 31.665C44.4835 31.665 44.2969 31.665 44.1047 31.665C44.2913 29.799 44.4779 27.933 44.6701 26.0105C39.2588 26.0105 33.8475 26.0105 28.2722 26.0105C28.2722 25.8239 28.2722 25.6373 28.2722 25.4451Z" fill="#DF6630"/>
<path d="M42.9738 39.0157C43.1604 39.0157 43.347 39.0157 43.5392 39.0157C43.3526 42.1879 43.166 45.36 42.9738 48.6283C42.2274 48.6283 41.481 48.6283 40.712 48.6283C40.712 48.0685 40.712 47.5087 40.712 46.932C39.5924 46.932 38.4728 46.932 37.3193 46.932C39.0157 45.8011 39.0157 45.8011 41.8429 45.8011C42.2161 43.5619 42.5893 41.3228 42.9738 39.0157Z" fill="#F3DDC8"/>
<path d="M18.0942 19.2251C21.453 19.2251 24.8117 19.2251 28.2722 19.2251C28.2722 20.3447 28.2722 21.4643 28.2722 22.6178C28.0857 22.058 27.8991 21.4982 27.7068 20.9214C26.4006 20.9214 25.0944 20.9214 23.7487 20.9214C23.7487 20.5482 23.7487 20.175 23.7487 19.7905C22.0693 19.7905 20.3899 19.7905 18.6597 19.7905C18.6597 21.0967 18.6597 22.4029 18.6597 23.7487C18.4731 23.7487 18.2865 23.7487 18.0942 23.7487C18.0942 22.2559 18.0942 20.7631 18.0942 19.2251Z" fill="#DE5734"/>
<path d="M10.1781 12.4398C11.6708 12.4398 13.1636 12.4398 14.7016 12.4398C14.343 12.5317 13.9844 12.6235 13.6149 12.7181C12.2039 13.5442 12.2039 13.5442 11.9716 15.6602C11.8815 16.494 11.8023 17.3291 11.733 18.165C11.6893 18.5914 11.6456 19.0178 11.6005 19.4571C11.4939 20.5098 11.4002 21.5637 11.309 22.6178C11.1224 22.6178 10.9358 22.6178 10.7435 22.6178C10.2369 19.1979 10.1144 15.895 10.1781 12.4398Z" fill="#ECDAD0"/>
<path d="M43.5393 31.6649C43.7259 31.6649 43.9125 31.6649 44.1048 31.6649C44.1325 32.259 44.1602 32.853 44.1887 33.4651C44.4235 38.6523 44.4235 38.6523 45.3417 43.7513C45.4933 44.4277 45.6449 45.1041 45.8011 45.801C45.4279 46.1742 45.0547 46.5474 44.6702 46.9319C44.4836 46.1855 44.297 45.4392 44.1048 44.6702C43.7316 44.8567 43.3584 45.0433 42.9739 45.2356C43.1605 40.7573 43.3471 36.2789 43.5393 31.6649Z" fill="#E37949"/>
<path d="M18.6597 20.9215C20.356 21.487 20.356 21.487 21.4869 22.0524C22.2333 22.0524 22.9797 22.0524 23.7487 22.0524C23.7487 22.4256 23.7487 22.7988 23.7487 23.1833C22.2559 23.1833 20.7631 23.1833 19.2251 23.1833C19.2251 23.9297 19.2251 24.6761 19.2251 25.4451C20.7179 25.4451 22.2107 25.4451 23.7487 25.4451C23.7487 25.6317 23.7487 25.8183 23.7487 26.0105C22.0693 26.0105 20.3899 26.0105 18.6597 26.0105C18.6597 24.3311 18.6597 22.6518 18.6597 20.9215Z" fill="#D84A1B"/>
<path d="M14.4832 33.7983C15.0932 33.8043 15.7032 33.8102 16.3317 33.8163C17.3212 33.8218 17.3212 33.8218 18.3306 33.8273C19.0223 33.8368 19.7141 33.8463 20.4267 33.856C21.1228 33.8611 21.8189 33.8662 22.5361 33.8715C24.2598 33.8849 25.9833 33.9035 27.7069 33.9267C27.7069 34.1133 27.7069 34.2999 27.7069 34.4922C23.4151 34.4922 19.1234 34.4922 14.7016 34.4922C14.7016 34.8654 14.7016 35.2386 14.7016 35.6231C13.7686 35.4365 12.8356 35.2499 11.8744 35.0576C13.0053 33.9267 13.0053 33.9267 14.4832 33.7983Z" fill="#E34C15"/>
<path d="M5.08899 49.7592C5.27559 49.7592 5.46218 49.7592 5.65443 49.7592C5.65443 51.4385 5.65443 53.1179 5.65443 54.8482C6.77402 55.1281 6.77402 55.1281 7.91621 55.4136C8.476 56.2533 8.476 56.2533 9.0471 57.1099C7.74093 57.2965 6.43475 57.4831 5.08899 57.6754C5.08899 55.063 5.08899 52.4507 5.08899 49.7592Z" fill="#E44C1C"/>
<path d="M10.7434 45.2356C11.4898 45.4222 12.2362 45.6088 13.0052 45.801C13.0052 46.734 13.0052 47.667 13.0052 48.6283C13.565 48.8149 14.1248 49.0015 14.7015 49.1937C13.5819 49.3803 12.4624 49.5669 11.3089 49.7592C11.1223 48.2664 10.9357 46.7736 10.7434 45.2356Z" fill="#D44E1F"/>
<path d="M23.7487 24.3141C25.2414 24.3141 26.7342 24.3141 28.2722 24.3141C28.2722 24.8739 28.2722 25.4337 28.2722 26.0104C26.7794 26.0104 25.2867 26.0104 23.7487 26.0104C23.7487 25.4506 23.7487 24.8908 23.7487 24.3141Z" fill="#DE5220"/>
<path d="M34.4921 39.0157C34.8653 39.0157 35.2385 39.0157 35.623 39.0157C35.623 40.1353 35.623 41.2549 35.623 42.4084C34.3169 42.595 33.0107 42.7816 31.6649 42.9739C32.0381 42.6007 32.4113 42.2275 32.7958 41.843C33.3556 41.843 33.9154 41.843 34.4921 41.843C34.3347 41.3007 34.3347 41.3007 34.1741 40.7474C34.0924 40.3626 34.0108 39.9777 33.9267 39.5812C34.1133 39.3946 34.2999 39.208 34.4921 39.0157Z" fill="#EB5E20"/>
<path d="M36.1884 38.4502C36.375 38.4502 36.5616 38.4502 36.7539 38.4502C36.8091 41.929 36.8091 41.929 36.7539 42.9738C36.1884 43.5392 36.1884 43.5392 34.4568 43.5745C33.9086 43.5629 33.3605 43.5512 32.7958 43.5392C34.4921 42.4083 34.4921 42.4083 35.623 42.4083C35.8096 41.1021 35.9962 39.796 36.1884 38.4502Z" fill="#F4D0BD"/>
<path d="M51.4556 31.6649C51.6422 31.6649 51.8288 31.6649 52.021 31.6649C52.021 32.5979 52.021 33.5309 52.021 34.4921C52.3942 34.4921 52.7674 34.4921 53.1519 34.4921C53.1519 35.9849 53.1519 37.4777 53.1519 39.0157C52.9653 39.0157 52.7787 39.0157 52.5865 39.0157C52.5865 38.0827 52.5865 37.1497 52.5865 36.1885C52.2133 36.1885 51.8401 36.1885 51.4556 36.1885C51.4556 34.6957 51.4556 33.2029 51.4556 31.6649Z" fill="#DB5E31"/>
<path d="M41.8429 59.9371C41.8429 60.1237 41.8429 60.3103 41.8429 60.5025C38.4193 61.0547 38.4193 61.0547 37.3194 61.068C36.9462 60.6948 36.573 60.3216 36.1885 59.9371C38.2108 59.2371 39.7717 59.5134 41.8429 59.9371Z" fill="#E4491B"/>
<path d="M34.4921 51.4555C33.9324 51.6421 33.3726 51.8287 32.7958 52.021C32.7958 52.3941 32.7958 52.7673 32.7958 53.1518C30.9298 52.9652 29.0639 52.7786 27.1414 52.5864C27.1414 52.3998 27.1414 52.2132 27.1414 52.021C29.6156 51.6855 31.9902 51.3773 34.4921 51.4555Z" fill="#E46B33"/>
</svg>
