<svg width="68" height="63" viewBox="0 0 68 63" fill="none" xmlns="http://www.w3.org/2000/svg">
<g clip-path="url(#clip0_105_1120)">
<path d="M0 0C22.3352 0 44.6704 0 67.6824 0C67.6824 20.79 67.6824 41.58 67.6824 63C45.3472 63 23.012 63 0 63C0 42.21 0 21.42 0 0Z" fill="#EFDA4F"/>
<path d="M55.5723 28.7979C57.6982 29.7597 59.0744 31.3531 60.446 33.2027C58.8311 34.5728 57.186 35.5934 55.3379 36.6081C55.0569 36.2569 54.776 35.9057 54.4865 35.5439C53.1832 34.4578 52.9987 34.3258 51.427 34.3201C49.8893 34.3737 49.8893 34.3737 48.9527 34.9054C48.7759 36.2097 48.6622 37.0549 48.9527 38.3108C50.4946 39.9767 52.8504 40.6417 54.9122 41.4501C57.828 42.626 59.8233 44.1714 61.723 46.6647C62.4923 49.2611 62.6836 52.0849 61.7895 54.676C60.3529 57.2289 58.0736 58.6826 55.3379 59.5946C46.8621 60.1921 46.8621 60.1921 43.4189 57.4662C42.2858 56.4262 41.214 55.3978 40.4392 54.0608C40.9513 52.5246 41.3287 52.3657 42.7006 51.5865C43.0326 51.3906 43.3646 51.1948 43.7066 50.9929C44.696 50.6554 44.696 50.6554 45.6039 50.953C46.3987 51.5067 46.3987 51.5067 47.4895 52.6241C49.035 53.968 50.5662 53.8232 52.5344 53.7515C53.5095 53.6484 54.3969 53.4789 55.3379 53.2094C55.4887 51.9017 55.5398 50.6827 55.3379 49.3784C54.4298 48.4703 53.9305 48.1777 52.7838 47.6756C44.7776 44.0723 44.7776 44.0723 43.0199 41.2373C42.0193 38.5299 41.7738 36.1612 42.5942 33.3623C45.3726 28.5225 50.3601 27.4649 55.5723 28.7979Z" fill="#333430"/>
<path d="M30.6487 28.9459C32.6153 28.9459 34.5819 28.9459 36.6081 28.9459C36.6398 32.2784 36.6629 35.6109 36.6783 38.9435C36.684 40.0765 36.6934 41.2093 36.7045 42.3422C36.72 43.9737 36.7272 45.6051 36.7329 47.2367C36.7394 47.7405 36.746 48.2444 36.7528 48.7635C36.7535 52.1101 36.5447 54.7132 34.3467 57.3864C32.143 59.1801 30.1748 59.8438 27.3497 59.834C27.0511 59.8333 26.7524 59.8326 26.4447 59.8318C23.0429 59.7149 20.8112 58.2999 18.4637 55.8965C17.8784 54.9121 17.8784 54.9121 17.8784 53.6351C19.5641 52.7923 21.2498 51.9494 22.9865 51.0811C23.5484 51.7834 24.1103 52.4858 24.6892 53.2094C26.0053 53.8675 27.0706 53.7601 28.5203 53.6351C29.6458 52.772 30.1562 52.2581 30.4439 50.855C30.4477 50.4504 30.4515 50.0459 30.4554 49.629C30.468 48.9389 30.468 48.9389 30.4808 48.2348C30.4816 47.4938 30.4816 47.4938 30.4824 46.7378C30.4894 46.23 30.4965 45.7222 30.5037 45.199C30.5244 43.5769 30.5335 41.955 30.5423 40.3327C30.5543 39.2331 30.567 38.1334 30.5805 37.0338C30.612 34.3378 30.6331 31.642 30.6487 28.9459Z" fill="#30322F"/>
</g>
<defs>
<clipPath id="clip0_105_1120">
<rect width="67.6824" height="63" fill="white"/>
</clipPath>
</defs>
</svg>
