<svg width="92" height="56" viewBox="0 0 92 56" fill="none" xmlns="http://www.w3.org/2000/svg">
<path d="M37.7047 32.1442C40.1545 34.169 42.4514 36.3204 44.6584 38.6085C48.5883 42.6043 52.0968 44.2784 57.6653 44.3369C61.2357 44.2606 64.2472 42.4948 66.7649 40.0385C67.418 39.3054 68.0308 38.5589 68.6403 37.788C69.0154 38.5382 69.0154 38.5382 68.7239 39.5961C68.5802 40.0051 68.4366 40.4141 68.2887 40.8356C68.1461 41.2466 68.0034 41.6575 67.8565 42.081C67.7438 42.3972 67.6312 42.7134 67.5151 43.0392C67.2675 43.0392 67.02 43.0392 66.7649 43.0392C66.6876 43.3409 66.6102 43.6426 66.5305 43.9535C64.5571 49.0662 60.6257 51.9253 55.8875 54.2917C48.7018 56.9728 40.5732 56.3731 33.6066 53.3657C29.6961 51.2692 26.6315 47.9613 23.5834 44.7974C19.9155 41.1057 16.5698 39.7042 11.4635 39.4994C7.23755 39.5753 4.90805 41.3187 1.92377 44.1689C1.12525 44.9146 1.12525 44.9146 0 45.6648C1.42722 39.5614 4.47174 34.3875 9.80053 30.8871C17.9705 26.3252 30.0531 26.6544 37.7047 32.1442Z" fill="#07B6D4"/>
<path d="M61.4347 4.75431C63.8447 6.63827 65.9413 8.82845 68.0782 11.0079C71.4571 14.4155 74.4743 16.4997 79.3391 16.7907C83.9695 16.7647 87.2282 14.731 90.4421 11.5556C90.8046 11.1756 91.1654 10.7938 91.5205 10.4069C91.8956 11.1571 91.8956 11.1571 91.6011 12.1652C89.3436 18.0194 86.3057 23.1329 80.4072 25.8674C79.3701 26.2659 78.3338 26.5997 77.2673 26.9106C76.8974 27.0228 76.5276 27.135 76.1465 27.2506C69.2451 29.107 61.7144 28.2321 55.47 24.7612C52.4938 22.8451 50.1347 20.4769 47.6774 17.9506C45.8047 16.0363 43.9817 14.3558 41.6344 13.0325C41.3012 12.8299 40.9681 12.6274 40.6249 12.4186C39.0133 11.7546 37.6406 11.7214 35.9143 11.7432C35.5967 11.7466 35.2791 11.75 34.9518 11.7534C29.8958 11.8934 26.7159 14.369 23.2552 17.9086C24.023 12.3872 27.2196 7.62011 31.5144 4.17264C39.9818 -1.94521 53.1463 -0.980199 61.4347 4.75431Z" fill="#07B6D4"/>
</svg>
