<svg width="79" height="76" viewBox="0 0 79 76" fill="none" xmlns="http://www.w3.org/2000/svg">
<mask id="path-1-outside-1_109_1697" maskUnits="userSpaceOnUse" x="-0.0298462" y="-0.75293" width="79" height="76" fill="black">
<rect fill="white" x="-0.0298462" y="-0.75293" width="79" height="76"/>
<path d="M13.9112 1.97434V73.2471H0.999983V1.97434H13.9112ZM77.139 26.0219H64.1233C63.7521 23.8875 63.0677 21.9966 62.0701 20.3493C61.0724 18.6789 59.8312 17.2636 58.3463 16.1036C56.8615 14.9436 55.1678 14.0735 53.2654 13.4935C51.3861 12.8903 49.356 12.5887 47.1752 12.5887C43.3006 12.5887 39.8669 13.5631 36.874 15.512C33.8811 17.4376 31.5379 20.2681 29.8442 24.0035C28.1506 27.7156 27.3037 32.2513 27.3037 37.6107C27.3037 43.0629 28.1506 47.6566 29.8442 51.392C31.5611 55.1041 33.9043 57.9114 36.874 59.8138C39.8669 61.6931 43.289 62.6327 47.1404 62.6327C49.2748 62.6327 51.2701 62.3543 53.1262 61.7975C55.0054 61.2175 56.6875 60.3706 58.1723 59.257C59.6804 58.1434 60.9448 56.7745 61.9657 55.1505C63.0097 53.5264 63.7289 51.6704 64.1233 49.5823L77.139 49.6519C76.6517 53.0392 75.5961 56.2177 73.972 59.1874C72.3712 62.1571 70.2715 64.7788 67.673 67.0525C65.0746 69.3029 62.0353 71.0662 58.5551 72.3422C55.075 73.5951 51.2121 74.2215 46.9664 74.2215C40.7022 74.2215 35.1108 72.7715 30.1922 69.8714C25.2737 66.9713 21.3991 62.7835 18.5686 57.3081C15.7381 51.8328 14.3229 45.267 14.3229 37.6107C14.3229 29.9313 15.7497 23.3654 18.6034 17.9133C21.4571 12.4379 25.3433 8.25015 30.2618 5.35005C35.1804 2.44996 40.7486 0.999909 46.9664 0.999909C50.9337 0.999909 54.6226 1.55673 58.0331 2.67036C61.4436 3.784 64.4829 5.41966 67.151 7.57733C69.8191 9.71179 72.0116 12.3335 73.7284 15.4424C75.4685 18.5281 76.6053 22.0546 77.139 26.0219Z"/>
</mask>
<path d="M13.9112 1.97434V73.2471H0.999983V1.97434H13.9112ZM77.139 26.0219H64.1233C63.7521 23.8875 63.0677 21.9966 62.0701 20.3493C61.0724 18.6789 59.8312 17.2636 58.3463 16.1036C56.8615 14.9436 55.1678 14.0735 53.2654 13.4935C51.3861 12.8903 49.356 12.5887 47.1752 12.5887C43.3006 12.5887 39.8669 13.5631 36.874 15.512C33.8811 17.4376 31.5379 20.2681 29.8442 24.0035C28.1506 27.7156 27.3037 32.2513 27.3037 37.6107C27.3037 43.0629 28.1506 47.6566 29.8442 51.392C31.5611 55.1041 33.9043 57.9114 36.874 59.8138C39.8669 61.6931 43.289 62.6327 47.1404 62.6327C49.2748 62.6327 51.2701 62.3543 53.1262 61.7975C55.0054 61.2175 56.6875 60.3706 58.1723 59.257C59.6804 58.1434 60.9448 56.7745 61.9657 55.1505C63.0097 53.5264 63.7289 51.6704 64.1233 49.5823L77.139 49.6519C76.6517 53.0392 75.5961 56.2177 73.972 59.1874C72.3712 62.1571 70.2715 64.7788 67.673 67.0525C65.0746 69.3029 62.0353 71.0662 58.5551 72.3422C55.075 73.5951 51.2121 74.2215 46.9664 74.2215C40.7022 74.2215 35.1108 72.7715 30.1922 69.8714C25.2737 66.9713 21.3991 62.7835 18.5686 57.3081C15.7381 51.8328 14.3229 45.267 14.3229 37.6107C14.3229 29.9313 15.7497 23.3654 18.6034 17.9133C21.4571 12.4379 25.3433 8.25015 30.2618 5.35005C35.1804 2.44996 40.7486 0.999909 46.9664 0.999909C50.9337 0.999909 54.6226 1.55673 58.0331 2.67036C61.4436 3.784 64.4829 5.41966 67.151 7.57733C69.8191 9.71179 72.0116 12.3335 73.7284 15.4424C75.4685 18.5281 76.6053 22.0546 77.139 26.0219Z" fill="white"/>
<path d="M13.9112 1.97434H14.9112V0.97434H13.9112V1.97434ZM13.9112 73.2471V74.2471H14.9112V73.2471H13.9112ZM0.999983 73.2471H-1.66893e-05V74.2471H0.999983V73.2471ZM0.999983 1.97434V0.97434H-1.66893e-05V1.97434H0.999983ZM13.9112 1.97434H12.9112V73.2471H13.9112H14.9112V1.97434H13.9112ZM13.9112 73.2471V72.2471H0.999983V73.2471V74.2471H13.9112V73.2471ZM0.999983 73.2471H1.99998V1.97434H0.999983H-1.66893e-05V73.2471H0.999983ZM0.999983 1.97434V2.97434H13.9112V1.97434V0.97434H0.999983V1.97434ZM77.139 26.0219V27.0219H78.2825L78.13 25.8886L77.139 26.0219ZM64.1233 26.0219L63.1381 26.1933L63.2822 27.0219H64.1233V26.0219ZM62.0701 20.3493L61.2115 20.8621L61.2147 20.8674L62.0701 20.3493ZM58.3463 16.1036L58.962 15.3156L58.3463 16.1036ZM53.2654 13.4935L52.9597 14.4457L52.9667 14.4479L52.9738 14.4501L53.2654 13.4935ZM36.874 15.512L37.4151 16.353L37.4197 16.35L36.874 15.512ZM29.8442 24.0035L30.754 24.4185L30.755 24.4164L29.8442 24.0035ZM29.8442 51.392L28.9334 51.8049L28.9366 51.8117L29.8442 51.392ZM36.874 59.8138L36.3346 60.6559L36.3423 60.6607L36.874 59.8138ZM53.1262 61.7975L53.4135 62.7554L53.4211 62.753L53.1262 61.7975ZM58.1723 59.257L57.5783 58.4526L57.5723 58.457L58.1723 59.257ZM61.9657 55.1505L61.1244 54.6097L61.119 54.6183L61.9657 55.1505ZM64.1233 49.5823L64.1287 48.5823L63.2954 48.5779L63.1407 49.3967L64.1233 49.5823ZM77.139 49.6519L78.1288 49.7943L78.2922 48.6581L77.1443 48.6519L77.139 49.6519ZM73.972 59.1874L73.0947 58.7076L73.0918 58.7129L73.972 59.1874ZM67.673 67.0525L68.3277 67.8084L68.3316 67.805L67.673 67.0525ZM58.5551 72.3422L58.8939 73.2831L58.8994 73.2811L58.5551 72.3422ZM30.1922 69.8714L30.7001 69.0099L30.1922 69.8714ZM18.5686 57.3082L17.6803 57.7674L18.5686 57.3082ZM18.6034 17.9133L19.4894 18.377L19.4902 18.3754L18.6034 17.9133ZM30.2618 5.35005L29.7539 4.48864L30.2618 5.35005ZM58.0331 2.67036L58.3435 1.71976L58.3435 1.71976L58.0331 2.67036ZM67.151 7.57733L66.5222 8.3549L66.5263 8.35819L67.151 7.57733ZM73.7284 15.4424L72.853 15.9258L72.8574 15.9336L73.7284 15.4424ZM77.139 26.0219V25.0219H64.1233V26.0219V27.0219H77.139V26.0219ZM64.1233 26.0219L65.1085 25.8506C64.7187 23.6087 63.9951 21.5975 62.9254 19.8313L62.0701 20.3493L61.2147 20.8674C62.1403 22.3957 62.7856 24.1662 63.1381 26.1933L64.1233 26.0219ZM62.0701 20.3493L62.9286 19.8366C61.8698 18.0637 60.5473 16.5541 58.962 15.3156L58.3463 16.1036L57.7307 16.8916C59.1151 17.9732 60.2751 19.2941 61.2115 20.8621L62.0701 20.3493ZM58.3463 16.1036L58.962 15.3156C57.3751 14.0758 55.5703 13.1508 53.557 12.537L53.2654 13.4935L52.9738 14.4501C54.7654 14.9963 56.3479 15.8113 57.7307 16.8916L58.3463 16.1036ZM53.2654 13.4935L53.571 12.5414C51.5832 11.9033 49.449 11.5887 47.1752 11.5887V12.5887V13.5887C49.2631 13.5887 51.189 13.8773 52.9597 14.4457L53.2654 13.4935ZM47.1752 12.5887V11.5887C43.1241 11.5887 39.4974 12.6104 36.3284 14.674L36.874 15.512L37.4197 16.35C40.2365 14.5158 43.4772 13.5887 47.1752 13.5887V12.5887ZM36.874 15.512L36.333 14.671C33.1547 16.716 30.6942 19.7073 28.9335 23.5905L29.8442 24.0035L30.755 24.4164C32.3816 20.829 34.6076 18.1593 37.4151 16.3529L36.874 15.512ZM29.8442 24.0035L28.9344 23.5884C27.1658 27.4649 26.3037 32.151 26.3037 37.6107H27.3037H28.3037C28.3037 32.3517 29.1353 27.9663 30.754 24.4185L29.8442 24.0035ZM27.3037 37.6107H26.3037C26.3037 43.1607 27.165 47.9046 28.9335 51.8049L29.8442 51.392L30.755 50.979C29.1361 47.4087 28.3037 42.9651 28.3037 37.6107H27.3037ZM29.8442 51.392L28.9366 51.8117C30.7204 55.6686 33.1802 58.635 36.3346 60.6559L36.874 59.8138L37.4135 58.9718C34.6285 57.1877 32.4017 54.5395 30.7518 50.9722L29.8442 51.392ZM36.874 59.8138L36.3423 60.6607C39.5087 62.649 43.1185 63.6327 47.1404 63.6327V62.6327V61.6327C43.4596 61.6327 40.2252 60.7372 37.4058 58.9669L36.874 59.8138ZM47.1404 62.6327V63.6327C49.3624 63.6327 51.4553 63.3428 53.4135 62.7553L53.1262 61.7975L52.8388 60.8397C51.0849 61.3658 49.1873 61.6327 47.1404 61.6327V62.6327ZM53.1262 61.7975L53.4211 62.753C55.4036 62.1411 57.1901 61.2437 58.7723 60.057L58.1723 59.257L57.5723 58.457C56.1849 59.4976 54.6072 60.2938 52.8313 60.842L53.1262 61.7975ZM58.1723 59.257L58.7664 60.0614C60.3772 58.8719 61.7266 57.4099 62.8123 55.6826L61.9657 55.1505L61.119 54.6183C60.1631 56.1391 58.9835 57.4149 57.5783 58.4526L58.1723 59.257ZM61.9657 55.1505L62.8068 55.6912C63.9271 53.9486 64.6901 51.9696 65.106 49.7679L64.1233 49.5823L63.1407 49.3967C62.7678 51.3711 62.0923 53.1043 61.1245 54.6097L61.9657 55.1505ZM64.1233 49.5823L64.118 50.5823L77.1336 50.6519L77.139 49.6519L77.1443 48.6519L64.1287 48.5823L64.1233 49.5823ZM77.139 49.6519L76.1491 49.5095C75.6787 52.7799 74.6607 55.8439 73.0947 58.7076L73.972 59.1874L74.8494 59.6672C76.5315 56.5915 77.6247 53.2985 78.1288 49.7943L77.139 49.6519ZM73.972 59.1874L73.0918 58.7129C71.549 61.5749 69.5252 64.103 67.0145 66.2999L67.673 67.0525L68.3316 67.805C71.0178 65.4546 73.1934 62.7393 74.8523 59.6619L73.972 59.1874ZM67.673 67.0525L67.0184 66.2966C64.5184 68.4617 61.5863 70.1657 58.2109 71.4034L58.5551 72.3422L58.8994 73.2811C62.4843 71.9667 65.6308 70.1441 68.3277 67.8084L67.673 67.0525ZM58.5551 72.3422L58.2164 71.4014C54.8597 72.6098 51.1135 73.2215 46.9664 73.2215V74.2215V75.2215C51.3108 75.2215 55.2903 74.5804 58.8939 73.2831L58.5551 72.3422ZM46.9664 74.2215V73.2215C40.8629 73.2215 35.4501 71.8106 30.7001 69.0099L30.1922 69.8714L29.6843 70.7328C34.7715 73.7323 40.5414 75.2215 46.9664 75.2215V74.2215ZM30.1922 69.8714L30.7001 69.0099C25.9566 66.2131 22.2082 62.1709 19.457 56.8489L18.5686 57.3082L17.6803 57.7674C20.5901 63.3961 24.5907 67.7295 29.6843 70.7328L30.1922 69.8714ZM18.5686 57.3082L19.457 56.8489C16.7155 51.5458 15.3229 45.1451 15.3229 37.6107H14.3229H13.3229C13.3229 45.3888 14.7608 52.1198 17.6803 57.7674L18.5686 57.3082ZM14.3229 37.6107H15.3229C15.3229 30.0535 16.7269 23.6549 19.4894 18.377L18.6034 17.9133L17.7175 17.4495C14.7726 23.076 13.3229 29.809 13.3229 37.6107H14.3229ZM18.6034 17.9133L19.4902 18.3754C22.2648 13.0519 26.0254 9.00881 30.7697 6.21146L30.2618 5.35005L29.7539 4.48864C24.6611 7.49148 20.6495 11.8238 17.7167 17.4511L18.6034 17.9133ZM30.2618 5.35005L30.7697 6.21146C35.5209 3.41008 40.9108 1.99991 46.9664 1.99991V0.999908V-9.15527e-05C40.5863 -9.15527e-05 34.8399 1.48983 29.7539 4.48864L30.2618 5.35005ZM46.9664 0.999908V1.99991C50.8393 1.99991 54.4224 2.54332 57.7227 3.62097L58.0331 2.67036L58.3435 1.71976C54.8228 0.570131 51.0281 -9.15527e-05 46.9664 -9.15527e-05V0.999908ZM58.0331 2.67036L57.7227 3.62097C61.0228 4.69854 63.9531 6.27727 66.5222 8.35489L67.151 7.57733L67.7798 6.79977C65.0128 4.56204 61.8645 2.86946 58.3435 1.71976L58.0331 2.67036ZM67.151 7.57733L66.5263 8.35819C69.0882 10.4077 71.1969 12.9269 72.8531 15.9258L73.7284 15.4424L74.6038 14.959C72.8262 11.7401 70.5501 9.01593 67.7757 6.79646L67.151 7.57733ZM73.7284 15.4424L72.8574 15.9336C74.5275 18.8952 75.629 22.2975 76.1479 26.1552L77.139 26.0219L78.13 25.8886C77.5817 21.8117 76.4095 18.1609 74.5995 14.9512L73.7284 15.4424Z" fill="#0004FF" fill-opacity="0.2" mask="url(#path-1-outside-1_109_1697)"/>
</svg>
