<svg width="2801" height="2801" viewBox="0 0 2801 2801" fill="none" xmlns="http://www.w3.org/2000/svg">
<circle cx="1400.5" cy="1400.5" r="1400.5" fill="url(#paint0_radial_194_13)"/>
<path d="M630.921 1171.85C641.264 1171.85 650.017 1174.43 657.178 1179.61C664.339 1184.38 667.92 1190.35 667.92 1197.51C667.92 1210.24 663.941 1220.58 655.984 1228.54C648.028 1236.1 636.689 1239.88 621.969 1239.88C598.894 1239.88 581.389 1240.08 569.454 1240.48C568.659 1245.25 565.078 1266.73 558.713 1304.93C551.551 1347.49 547.175 1373.55 545.584 1383.1L533.052 1461.28C524.299 1519.76 517.337 1568.69 512.165 1608.08C520.52 1607.68 531.858 1607.48 546.181 1607.48C567.266 1607.48 581.588 1610.27 589.147 1615.84C596.706 1621.41 600.486 1629.76 600.486 1640.9C600.486 1651.25 596.308 1660 587.954 1667.16C579.997 1674.32 568.659 1677.9 553.938 1677.9C543.992 1677.9 528.278 1677.5 506.794 1676.71C486.902 1675.91 473.774 1675.51 467.408 1675.51C442.344 1675.51 414.893 1677.7 385.055 1682.08C371.926 1684.07 362.577 1685.06 357.007 1685.06C348.255 1685.06 340.895 1682.67 334.927 1677.9C328.96 1673.13 325.976 1666.16 325.976 1657.01C325.976 1642.69 332.341 1631.55 345.072 1623.6C357.803 1615.64 375.706 1611.46 398.781 1611.06L426.828 1610.47L428.619 1597.34C438.167 1533.68 445.129 1488.73 449.505 1462.47L462.634 1384.29C470.591 1338.15 477.752 1290.6 484.117 1241.67L433.99 1242.27C419.667 1242.27 409.721 1240.08 404.152 1235.7C398.98 1230.93 396.394 1224.36 396.394 1216.01C396.394 1188.96 415.888 1174.43 454.876 1172.44C473.177 1171.65 495.456 1171.25 521.713 1171.25L630.921 1171.85ZM826.728 1679.09C773.815 1679.09 731.445 1669.15 699.618 1649.26C667.791 1628.97 651.877 1598.13 651.877 1556.76C651.877 1534.88 655.657 1518.17 663.215 1506.63C670.774 1495.09 681.914 1489.32 696.634 1489.32C707.376 1489.32 716.128 1492.11 722.892 1497.68C729.655 1503.25 733.036 1510.41 733.036 1519.16C733.036 1527.12 732.44 1534.08 731.246 1540.05C731.246 1541.64 730.848 1544.43 730.053 1548.4C729.655 1552.38 729.456 1556.56 729.456 1560.94C729.456 1578.84 738.407 1592.17 756.31 1600.92C774.611 1609.67 800.073 1614.05 832.695 1614.05C866.512 1614.05 892.968 1608.08 912.065 1596.14C931.161 1583.81 940.709 1566.7 940.709 1544.82C940.709 1531.3 936.333 1519.76 927.58 1510.21C918.828 1500.27 907.887 1492.11 894.759 1485.74C881.63 1478.98 863.13 1470.82 839.26 1461.28C808.626 1449.34 783.562 1438 764.068 1427.26C744.972 1416.52 728.461 1402 714.537 1383.7C701.01 1365 694.247 1341.92 694.247 1314.47C694.247 1285.83 701.806 1260.37 716.924 1238.09C732.44 1215.81 754.52 1198.5 783.164 1186.17C812.207 1173.84 846.222 1167.67 885.21 1167.67C914.253 1167.67 940.908 1172.05 965.176 1180.8C989.445 1189.15 1008.74 1202.08 1023.06 1219.59C1037.78 1237.09 1045.14 1258.58 1045.14 1284.04C1045.14 1309.1 1041.36 1328 1033.8 1340.73C1026.24 1353.46 1015.11 1359.83 1000.39 1359.83C990.041 1359.83 981.289 1356.64 974.128 1350.28C967.364 1343.91 963.983 1336.35 963.983 1327.6C963.983 1320.04 964.58 1313.08 965.773 1306.72C966.967 1294.78 967.563 1287.22 967.563 1284.04C967.563 1267.33 959.408 1254.6 943.096 1245.85C926.785 1237.09 906.495 1232.72 882.227 1232.72C848.012 1232.72 821.755 1239.08 803.454 1251.81C785.551 1264.15 776.6 1281.65 776.6 1304.33C776.6 1319.45 781.175 1332.38 790.325 1343.12C799.874 1353.86 811.61 1362.81 825.534 1369.97C839.459 1377.13 858.953 1385.69 884.017 1395.63C914.253 1407.97 938.521 1419.11 956.822 1429.05C975.122 1439 990.638 1452.52 1003.37 1469.63C1016.5 1486.74 1023.06 1507.82 1023.06 1532.89C1023.06 1579.83 1005.16 1616.04 969.354 1641.5C933.946 1666.56 886.404 1679.09 826.728 1679.09ZM1224.38 1677.3C1196.93 1677.3 1172.07 1670.54 1149.79 1657.01C1127.91 1643.49 1110.6 1623.99 1097.87 1598.53C1085.14 1572.67 1078.78 1542.24 1078.78 1507.23C1078.78 1446.76 1091.71 1390.86 1117.56 1339.54C1143.42 1287.82 1181.62 1246.44 1232.14 1215.41C1282.67 1183.98 1343.34 1168.27 1414.15 1168.27C1432.46 1168.27 1451.95 1169.66 1472.64 1172.44C1493.72 1175.23 1512.82 1179.41 1529.93 1184.98C1541.07 1188.16 1546.64 1196.12 1546.64 1208.85C1546.64 1219.19 1542.66 1228.94 1534.7 1238.09C1527.14 1247.24 1518.19 1251.81 1507.85 1251.81C1504.66 1251.81 1502.28 1251.61 1500.68 1251.22C1480 1246.44 1462.29 1243.06 1447.57 1241.07C1432.85 1238.69 1417.34 1237.49 1401.03 1237.49C1350.5 1237.49 1307.53 1249.82 1272.13 1274.49C1236.72 1298.76 1210.26 1330.98 1192.76 1371.17C1175.25 1411.35 1166.5 1454.71 1166.5 1501.26C1166.5 1535.08 1173.06 1561.33 1186.19 1580.03C1199.72 1598.33 1217.22 1607.48 1238.71 1607.48C1262.98 1607.48 1284.26 1597.54 1302.56 1577.65C1320.86 1557.75 1337.57 1525.53 1352.69 1480.97C1367.81 1436.41 1382.73 1375.94 1397.45 1299.55C1399.83 1288.42 1404.61 1280.86 1411.77 1276.88C1418.93 1272.9 1428.48 1270.91 1440.41 1270.91C1468.66 1270.91 1482.78 1280.06 1482.78 1298.36C1482.78 1301.54 1482.19 1305.52 1480.99 1310.3C1470.65 1348.89 1461.1 1391.65 1452.35 1438.6C1443.99 1485.15 1439.82 1520.56 1439.82 1544.82C1439.82 1566.31 1443 1582.02 1449.36 1591.97C1455.73 1601.52 1465.48 1606.29 1478.6 1606.29C1491.34 1606.29 1503.47 1602.11 1515.01 1593.76C1526.54 1585.01 1541.07 1570.29 1558.57 1549.6C1563.34 1544.03 1568.72 1541.24 1574.68 1541.24C1579.86 1541.24 1583.83 1543.63 1586.62 1548.4C1589.8 1553.18 1591.39 1559.74 1591.39 1568.1C1591.39 1583.61 1587.61 1595.95 1580.05 1605.1C1560.56 1628.57 1541.46 1646.47 1522.76 1658.8C1504.07 1671.14 1481.19 1677.3 1454.14 1677.3C1426.29 1677.3 1403.81 1669.35 1386.7 1653.43C1369.6 1637.12 1358.85 1614.25 1354.48 1584.81C1325.04 1646.47 1281.67 1677.3 1224.38 1677.3ZM2044.13 1292.39C2044.13 1326.21 2032.2 1355.45 2008.33 1380.12C1984.46 1404.39 1949.65 1421.89 1903.89 1432.63C1928.56 1439.4 1947.26 1450.54 1959.99 1466.05C1972.72 1481.17 1979.09 1498.67 1979.09 1518.57C1979.09 1550 1969.14 1577.25 1949.25 1600.32C1929.75 1623.4 1901.11 1641.3 1863.31 1654.03C1825.52 1666.36 1779.97 1672.53 1726.66 1672.53C1706.76 1672.53 1690.85 1671.93 1678.92 1670.74C1678.52 1681.88 1673.74 1690.23 1664.59 1695.8C1655.44 1701.37 1643.71 1704.16 1629.38 1704.16C1615.06 1704.16 1605.12 1700.98 1599.55 1694.61C1594.37 1688.24 1592.19 1678.9 1592.98 1666.56C1596.56 1610.86 1603.52 1552.58 1613.87 1491.71C1624.21 1430.44 1637.34 1371.36 1653.26 1314.47C1656.04 1304.53 1661.61 1297.57 1669.96 1293.59C1678.32 1289.61 1689.26 1287.62 1702.79 1287.62C1727.05 1287.62 1739.19 1294.38 1739.19 1307.91C1739.19 1313.48 1737.99 1319.84 1735.61 1327.01C1725.26 1358.04 1714.92 1400.21 1704.58 1453.52C1694.23 1506.43 1686.87 1556.96 1682.5 1605.1C1701.59 1606.69 1717.11 1607.48 1729.04 1607.48C1784.74 1607.48 1825.52 1599.53 1851.38 1583.61C1877.64 1567.3 1890.77 1546.61 1890.77 1521.55C1890.77 1504.04 1883.21 1489.32 1868.09 1477.39C1853.37 1465.45 1828.5 1458.89 1793.49 1457.7C1785.54 1457.3 1779.97 1455.31 1776.78 1451.73C1773.6 1448.15 1772.01 1442.38 1772.01 1434.42C1772.01 1422.89 1774.4 1413.54 1779.17 1406.37C1783.95 1399.21 1792.7 1395.43 1805.43 1395.04C1833.68 1394.24 1859.14 1390.06 1881.81 1382.5C1904.89 1374.95 1922.99 1364.4 1936.12 1350.88C1949.25 1336.95 1955.81 1320.84 1955.81 1302.54C1955.81 1279.46 1944.47 1261.36 1921.8 1248.23C1899.12 1234.71 1864.31 1227.94 1817.36 1227.94C1774.8 1227.94 1733.62 1233.51 1693.83 1244.65C1654.05 1255.39 1620.23 1269.12 1592.39 1285.83C1579.65 1293.39 1568.91 1297.17 1560.16 1297.17C1553 1297.17 1547.43 1294.78 1543.45 1290.01C1539.87 1284.83 1538.08 1278.47 1538.08 1270.91C1538.08 1260.96 1540.07 1252.41 1544.05 1245.25C1548.42 1238.09 1558.57 1229.93 1574.48 1220.78C1607.9 1201.69 1647.09 1186.77 1692.04 1176.03C1737 1165.28 1782.95 1159.91 1829.9 1159.91C1901.91 1159.91 1955.61 1172.05 1991.02 1196.32C2026.43 1220.58 2044.13 1252.61 2044.13 1292.39ZM2198.78 1677.3C2171.33 1677.3 2146.47 1670.54 2124.19 1657.01C2102.31 1643.49 2085 1623.99 2072.27 1598.53C2059.54 1572.67 2053.17 1542.24 2053.17 1507.23C2053.17 1446.76 2066.1 1390.86 2091.96 1339.54C2117.82 1287.82 2156.01 1246.44 2206.54 1215.41C2257.07 1183.98 2317.74 1168.27 2388.55 1168.27C2406.85 1168.27 2426.35 1169.66 2447.04 1172.44C2468.12 1175.23 2487.22 1179.41 2504.32 1184.98C2515.46 1188.16 2521.03 1196.12 2521.03 1208.85C2521.03 1219.19 2517.05 1228.94 2509.1 1238.09C2501.54 1247.24 2492.59 1251.81 2482.24 1251.81C2479.06 1251.81 2476.67 1251.61 2475.08 1251.22C2454.4 1246.44 2436.69 1243.06 2421.97 1241.07C2407.25 1238.69 2391.74 1237.49 2375.42 1237.49C2324.9 1237.49 2281.93 1249.82 2246.52 1274.49C2211.12 1298.76 2184.66 1330.98 2167.15 1371.17C2149.65 1411.35 2140.9 1454.71 2140.9 1501.26C2140.9 1535.08 2147.46 1561.33 2160.59 1580.03C2174.12 1598.33 2191.62 1607.48 2213.1 1607.48C2237.37 1607.48 2258.66 1597.54 2276.96 1577.65C2295.26 1557.75 2311.97 1525.53 2327.09 1480.97C2342.2 1436.41 2357.12 1375.94 2371.84 1299.55C2374.23 1288.42 2379 1280.86 2386.17 1276.88C2393.33 1272.9 2402.87 1270.91 2414.81 1270.91C2443.06 1270.91 2457.18 1280.06 2457.18 1298.36C2457.18 1301.54 2456.58 1305.52 2455.39 1310.3C2445.05 1348.89 2435.5 1391.65 2426.75 1438.6C2418.39 1485.15 2414.21 1520.56 2414.21 1544.82C2414.21 1566.31 2417.4 1582.02 2423.76 1591.97C2430.13 1601.52 2439.87 1606.29 2453 1606.29C2465.73 1606.29 2477.87 1602.11 2489.41 1593.76C2500.94 1585.01 2515.46 1570.29 2532.97 1549.6C2537.74 1544.03 2543.11 1541.24 2549.08 1541.24C2554.25 1541.24 2558.23 1543.63 2561.02 1548.4C2564.2 1553.18 2565.79 1559.74 2565.79 1568.1C2565.79 1583.61 2562.01 1595.95 2554.45 1605.1C2534.96 1628.57 2515.86 1646.47 2497.16 1658.8C2478.46 1671.14 2455.59 1677.3 2428.54 1677.3C2400.69 1677.3 2378.21 1669.35 2361.1 1653.43C2343.99 1637.12 2333.25 1614.25 2328.88 1584.81C2299.44 1646.47 2256.07 1677.3 2198.78 1677.3Z" fill="white"/>
<defs>
<radialGradient id="paint0_radial_194_13" cx="0" cy="0" r="1" gradientUnits="userSpaceOnUse" gradientTransform="translate(1400.5 1400.5) rotate(90) scale(1400.5)">
<stop stop-color="#02D1F5"/>
<stop offset="1" stop-color="#1E3A8A"/>
</radialGradient>
</defs>
</svg>
