<svg width="89" height="91" viewBox="0 0 89 91" fill="none" xmlns="http://www.w3.org/2000/svg">
<g clip-path="url(#clip0_109_1600)">
<path d="M0 14.8296C2.11322 14.8296 4.22644 14.8296 6.4037 14.8296C6.41239 15.3218 6.42108 15.8141 6.43003 16.3212C6.50659 22.7124 6.50659 22.7124 9.77407 27.974C12.3439 29.7683 14.7952 29.908 17.863 29.6592C20.2504 29.0973 21.9564 27.6746 23.2556 25.6148C24.3435 23.3206 24.4453 21.2201 24.4984 18.7055C24.5331 17.4265 24.5679 16.1474 24.6037 14.8296C29.6087 14.8296 34.6137 14.8296 39.7704 14.8296C39.8816 17.2765 39.9928 19.7234 40.1074 22.2444C40.9128 25.2359 41.8803 27.3129 44.6153 28.943C47.121 30.0949 49.9706 30.1612 52.5923 29.3367C55.252 28.0991 56.5147 26.2342 57.6333 23.5926C57.9418 22.5506 58.0329 21.575 58.077 20.4908C58.0899 20.193 58.1027 19.8953 58.1159 19.5886C58.1305 19.2138 58.145 18.8389 58.16 18.4527C58.2086 17.2571 58.2573 16.0615 58.3074 14.8296C60.7543 14.8296 63.2012 14.8296 65.7222 14.8296C65.7353 16.625 65.7353 16.625 65.7486 18.4567C65.7615 19.6168 65.7767 20.7768 65.7922 21.9369C65.8017 22.7427 65.8088 23.5486 65.8136 24.3544C65.8208 25.5133 65.8365 26.6718 65.8539 27.8305C65.8545 28.3704 65.8545 28.3704 65.8551 28.9212C65.8862 30.928 65.8862 30.928 66.7048 32.7259C66.9366 32.9373 67.1685 33.1488 67.4074 33.3666C67.6259 33.5717 67.8445 33.7768 68.0696 33.988C68.289 34.1723 68.5084 34.3565 68.7345 34.5463C69.803 35.4584 70.7953 36.4174 71.7889 37.4111C72.0808 37.6335 72.3728 37.856 72.6736 38.0851C73.5255 38.8025 73.9321 39.489 74.4852 40.4444C74.8188 40.6669 75.1525 40.8893 75.4963 41.1185C75.4963 41.3409 75.4963 41.5634 75.4963 41.7926C75.83 41.9038 76.1636 42.015 76.5074 42.1296C77.0762 42.6562 77.0762 42.6562 77.5185 43.1407C76.9929 44.4309 76.2255 45.2855 75.1593 46.174C73.9734 46.2505 73.1804 45.415 72.3168 44.664C71.5821 43.9512 70.9453 43.1702 70.2933 42.3824C69.7666 41.7925 69.2186 41.304 68.6081 40.8025C67.4864 39.876 66.5655 38.8443 65.6248 37.7376C64.8038 36.7929 63.9215 35.9255 63.0259 35.0518C61.8667 35.5511 61.1151 36.2059 60.2283 37.0977C59.9543 37.3723 59.6804 37.6469 59.3982 37.9298C59.1147 38.2174 58.8312 38.505 58.5391 38.8013C58.2595 39.0811 57.98 39.3609 57.6919 39.6492C56.2112 41.1404 54.7785 42.6551 53.4149 44.2543C52.9287 44.8101 52.4551 45.3454 51.9037 45.837C51.6813 45.837 51.4588 45.837 51.2296 45.837C51.1601 46.016 51.0906 46.195 51.019 46.3794C50.3602 47.5248 49.4699 48.3683 48.5333 49.2916C48.3491 49.4784 48.1649 49.6653 47.9751 49.8577C46.5965 51.2296 46.5965 51.2296 45.837 51.2296C45.7536 51.4173 45.6702 51.605 45.5843 51.7983C45.0857 52.7207 44.5109 53.4798 43.8148 54.2629C43.5924 54.2629 43.3699 54.2629 43.1407 54.2629C43.0057 54.5687 43.0057 54.5687 42.868 54.8807C42.4539 55.6342 42.0944 55.9714 41.4384 56.5116C39.5817 58.3178 38.5574 60.6957 37.4115 62.9846C37.013 63.78 36.6074 64.5716 36.2005 65.3628C33.1835 70.662 33.1835 70.662 32.6926 76.5074C33.2232 77.2432 33.5279 77.4827 34.4212 77.6646C38.5706 77.6713 41.9654 75.4227 45.5 73.474C45.7863 73.3163 46.0726 73.1586 46.3676 72.9961C46.8433 72.7322 47.3182 72.4668 47.7921 72.1996C48.363 71.8833 48.9389 71.576 49.5168 71.2728C49.8526 71.0955 50.1885 70.9182 50.5345 70.7356C50.8434 70.5749 51.1523 70.4141 51.4706 70.2485C52.3284 69.7852 52.3284 69.7852 52.9148 68.7555C53.1373 68.7555 53.3597 68.7555 53.5889 68.7555C53.6176 68.5574 53.6462 68.3593 53.6758 68.1552C53.9967 67.1959 54.4496 66.8582 55.2319 66.2277C55.9874 65.6144 56.5942 65.0862 57.1725 64.3003C57.3246 64.1022 57.4767 63.9041 57.6333 63.7C57.8558 63.7 58.0782 63.7 58.3074 63.7C58.3826 63.514 58.4577 63.3281 58.5352 63.1365C59.1215 62.1056 59.8772 61.4056 60.7299 60.5824C62.0908 59.2556 63.3773 57.9012 64.5966 56.4405C65.0481 55.9481 65.0481 55.9481 65.7222 55.6111C65.7222 65.2874 65.7222 74.9637 65.7222 84.9333C44.0339 84.9333 22.3456 84.9333 0 84.9333C0 61.7991 0 38.6649 0 14.8296Z" fill="#848483"/>
<path d="M62.3518 34.7148C63.484 35.2504 64.2463 35.8444 65.1324 36.7371C65.3705 36.9734 65.6086 37.2098 65.8539 37.4533C66.3963 38.0852 66.3963 38.0852 66.3963 38.7593C66.73 38.8705 67.0636 38.9817 67.4074 39.0963C67.8023 39.5702 68.1958 40.0455 68.5791 40.5287C69.3588 41.4243 70.2579 42.1657 71.1583 42.9367C71.8567 43.536 72.5251 44.1376 73.137 44.826C73.137 45.0484 73.137 45.2708 73.137 45.5C73.6931 45.7225 74.2493 45.9449 74.8222 46.1741C73.2383 48.0829 71.5335 49.8275 69.7667 51.5667C69.5056 51.8278 69.2444 52.0889 68.9754 52.3579C68.3081 53.0253 67.6388 53.6903 66.9677 54.3538C64.1582 57.1362 64.1582 57.1362 61.5185 60.0782C60.7608 60.9444 59.9386 61.7404 59.1105 62.5388C58.6079 63.0162 58.6079 63.0162 58.3074 63.7C58.085 63.7 57.8625 63.7 57.6333 63.7C57.503 63.9946 57.503 63.9946 57.37 64.2951C56.9261 65.1089 56.4366 65.6607 55.7796 66.3121C55.5746 66.5189 55.3695 66.7257 55.1582 66.9387C54.6 67.4074 54.6 67.4074 53.9259 67.4074C53.8744 67.7098 53.8744 67.7098 53.8219 68.0183C53.3534 69.5007 51.8886 70.4022 50.5806 71.1478C50.1478 71.362 49.7121 71.5703 49.2734 71.7721C48.5498 72.1181 47.8558 72.4938 47.1575 72.8882C45.4043 73.8689 43.6332 74.8131 41.8558 75.7491C41.5432 75.9155 41.2306 76.0819 40.9085 76.2533C40.6072 76.4119 40.3059 76.5705 39.9955 76.7339C39.5903 76.9481 39.5903 76.9481 39.1769 77.1667C37.4233 77.9843 35.6118 78.0711 33.7037 77.8556C32.819 77.3711 32.819 77.3711 32.3556 76.5074C31.7552 72.3047 34.3459 68.393 36.2907 64.8309C36.8131 63.8684 37.3015 62.8989 37.7626 61.9056C38.9501 59.3596 40.0602 57.3799 42.202 55.4769C42.8369 54.9737 42.8369 54.9737 43.1407 54.263C43.3632 54.263 43.5856 54.263 43.8148 54.263C43.8982 54.0753 43.9816 53.8876 44.0676 53.6942C45.0122 51.9467 46.3414 50.7596 47.8303 49.4865C48.9036 48.5459 49.8938 47.5295 50.8926 46.5111C51.1915 46.2192 51.4904 45.9272 51.7984 45.6264C52.5869 44.8425 52.5869 44.8425 53.2518 43.9834C53.9827 43.0698 54.779 42.278 55.6111 41.4556C55.8784 41.1883 56.1458 40.9209 56.4212 40.6455C58.3981 38.6686 60.375 36.6917 62.3518 34.7148Z" fill="#FDD441"/>
<path d="M77.5185 19.5481C78.2055 19.9775 78.8796 20.428 79.5407 20.8962C79.5407 21.1187 79.5407 21.3411 79.5407 21.5703C79.8744 21.6815 80.2081 21.7928 80.5518 21.9074C80.9982 22.3734 80.9982 22.3734 81.4576 22.9606C82.2131 23.8787 82.9922 24.6589 83.9012 25.4252C85.1115 26.4497 86.1307 27.5635 87.1425 28.7824C87.6054 29.3612 87.6054 29.3612 88.3037 29.6592C88.3037 30.7714 88.3037 31.8837 88.3037 33.0296C88.0813 33.0296 87.8588 33.0296 87.6296 33.0296C87.4945 33.3295 87.4945 33.3295 87.3566 33.6355C86.9502 34.3876 86.539 34.872 85.9313 35.4678C85.7358 35.6612 85.5403 35.8545 85.3388 36.0537C85.1355 36.2514 84.9322 36.4491 84.7227 36.6527C84.5167 36.8556 84.3108 37.0585 84.0986 37.2676C83.592 37.7663 83.0832 38.263 82.5741 38.7592C81.5631 38.3056 80.8617 37.8036 80.0828 37.0186C79.867 36.8027 79.6512 36.5868 79.4288 36.3644C79.1999 36.132 78.9709 35.8995 78.735 35.66C78.4975 35.4216 78.26 35.1832 78.0154 34.9375C77.2583 34.1767 76.5037 33.4136 75.7491 32.6504C75.2358 32.1337 74.7223 31.6172 74.2087 31.1008C72.9509 29.8356 71.6951 28.5685 70.4407 27.2999C70.9998 26.1124 71.6428 25.3455 72.5814 24.4193C72.8682 24.1348 73.1549 23.8502 73.4504 23.557C73.7501 23.2629 74.0499 22.9687 74.3588 22.6657C74.6612 22.3663 74.9636 22.067 75.2751 21.7586C76.0214 21.0202 76.7693 20.2835 77.5185 19.5481Z" fill="#868583"/>
<path d="M17.526 6.0667C18.7944 6.79113 19.7222 7.71923 20.2223 9.10003C20.2872 10.0694 20.3167 11.005 20.3118 11.9741C20.3124 12.2524 20.3131 12.5308 20.3137 12.8176C20.3142 13.4054 20.313 13.9933 20.3101 14.5811C20.3065 15.4783 20.3101 16.3753 20.3144 17.2725C20.314 17.8446 20.3131 18.4166 20.3118 18.9886C20.3131 19.2559 20.3145 19.5231 20.3159 19.7984C20.3016 21.493 20.1594 22.8311 19.0611 24.1996C18.024 25.1329 17.2481 25.7496 15.8197 25.8044C14.0022 25.5448 12.9466 25.1678 11.7496 23.75C10.9428 22.2473 10.9272 21.1097 10.9432 19.4323C10.9419 19.1333 10.9406 18.8342 10.9393 18.5261C10.9384 17.8961 10.9408 17.2661 10.9465 16.6361C10.9537 15.6751 10.9466 14.715 10.9379 13.754C10.9388 13.1401 10.9406 12.5261 10.9432 11.9122C10.9405 11.6267 10.9377 11.3412 10.9349 11.0471C10.9635 9.22968 11.2595 8.17995 12.4704 6.74077C14.1162 5.55426 15.6268 5.50611 17.526 6.0667Z" fill="#A9A7A8"/>
<path d="M50.857 5.96271C52.3902 6.73413 52.9215 7.48202 53.5889 9.10005C53.7335 10.098 53.7387 11.0827 53.735 12.0899C53.7368 12.3732 53.7385 12.6565 53.7403 12.9484C53.7425 13.5452 53.7421 14.1421 53.7392 14.7389C53.7363 15.6474 53.746 16.5551 53.7567 17.4634C53.7573 18.0456 53.7571 18.6277 53.7561 19.2098C53.7617 19.6133 53.7617 19.6133 53.7675 20.025C53.7441 21.9263 53.3368 23.0407 52.2407 24.6038C50.7819 25.6087 49.6116 25.8301 47.8592 25.6149C46.5286 25.1293 45.729 24.6341 44.9703 23.417C44.3671 21.948 44.3371 20.7401 44.3427 19.169C44.341 18.8775 44.3392 18.5859 44.3374 18.2855C44.3352 17.6713 44.3356 17.0572 44.3385 16.4431C44.3414 15.5066 44.3317 14.5707 44.321 13.6343C44.3205 13.0357 44.3206 12.4371 44.3217 11.8385C44.316 11.4213 44.316 11.4213 44.3102 10.9957C44.3318 9.19754 44.6387 8.16375 45.837 6.74079C47.4404 5.67187 48.994 5.28282 50.857 5.96271Z" fill="#A9A8A8"/>
<path d="M70.1037 26.626C74.1482 30.6704 78.1926 34.7149 82.237 38.7593C81.9151 39.1372 81.5929 39.5148 81.2705 39.8923C81.0911 40.1026 80.9117 40.3129 80.7269 40.5296C80.1468 41.1968 79.5402 41.8269 78.9088 42.4457C78.7081 42.6433 78.5074 42.841 78.3006 43.0447C78.1537 43.1876 78.0069 43.3306 77.8556 43.4778C76.5787 42.8965 76.0162 42.2352 75.1593 41.1186C74.6047 40.5498 74.0427 39.9881 73.4741 39.4334C73.196 39.1484 72.918 38.8634 72.6315 38.5697C71.8207 37.7472 71.8207 37.7472 70.9674 37.1163C70.0505 36.3559 69.3394 35.5392 68.5818 34.6253C68.0328 33.9663 68.0328 33.9663 67.1546 33.135C66.4611 32.4222 66.132 31.8923 65.7222 31.0075C67.1827 29.547 68.6432 28.0865 70.1037 26.626Z" fill="#FAD444"/>
<path d="M65.3852 29.6593C65.4964 29.6593 65.6076 29.6593 65.7222 29.6593C65.8369 30.1911 65.8369 30.1911 65.9539 30.7336C66.341 32.0886 67.0218 32.7673 68.0815 33.7037C69.7666 35.3889 69.7666 35.3889 70.5882 36.2315C71.2165 36.8446 71.8211 37.3763 72.5051 37.9167C73.4319 38.7226 73.8879 39.3921 74.4852 40.4445C74.8188 40.6669 75.1525 40.8894 75.4963 41.1186C75.4963 41.341 75.4963 41.5634 75.4963 41.7926C75.8299 41.9039 76.1636 42.0151 76.5074 42.1297C77.0761 42.6563 77.0761 42.6563 77.5185 43.1408C76.9929 44.4309 76.2255 45.2856 75.1592 46.1741C73.9734 46.2506 73.1804 45.4151 72.3168 44.664C71.5821 43.9513 70.9453 43.1703 70.2933 42.3824C69.7666 41.7925 69.2186 41.3041 68.6081 40.8026C67.4864 39.8761 66.5655 38.8444 65.6248 37.7377C64.8038 36.793 63.9215 35.9256 63.0259 35.0519C62.0376 35.4972 61.3452 35.9775 60.5876 36.7502C60.3943 36.9458 60.201 37.1413 60.0018 37.3427C59.8041 37.546 59.6064 37.7493 59.4027 37.9588C59.1999 38.1648 58.997 38.3707 58.7879 38.5829C58.2892 39.0896 57.7925 39.5983 57.2963 40.1074C57.185 39.7738 57.0738 39.4401 56.9592 39.0963C57.5603 38.0745 57.8341 37.7936 58.9815 37.4112C59.0927 37.0775 59.2039 36.7438 59.3185 36.4C59.5409 36.4 59.7634 36.4 59.9926 36.4C59.9926 36.1776 59.9926 35.9552 59.9926 35.726C60.215 35.726 60.4375 35.726 60.6666 35.726C60.6666 35.5035 60.6666 35.2811 60.6666 35.0519C61.0003 35.0519 61.334 35.0519 61.6777 35.0519C61.6777 34.7182 61.6777 34.3846 61.6777 34.0408C62.2462 33.2929 62.6631 33.0391 63.5525 32.7137C64.4072 32.4293 64.4072 32.4293 64.7953 31.7237C65.0367 31.0398 65.2332 30.3682 65.3852 29.6593Z" fill="#8A837E"/>
<path d="M43.4778 61.3407C43.7002 61.3407 43.9227 61.3407 44.1519 61.3407C44.6008 61.7975 44.6008 61.7975 45.0998 62.415C45.7379 63.187 46.3693 63.8952 47.0799 64.6057C47.7562 65.2821 48.3213 65.953 48.8704 66.7333C47.0512 67.934 45.175 68.9432 43.2193 69.8997C41.7696 70.6108 40.369 71.3781 38.9857 72.2101C38.7998 72.2936 38.6138 72.377 38.4222 72.4629C38.1998 72.3517 37.9774 72.2405 37.7482 72.1259C39.1132 69.3632 40.4922 66.6099 41.9401 63.8895C42.0552 63.6725 42.1703 63.4555 42.289 63.2318C43.0984 61.7201 43.0984 61.7201 43.4778 61.3407Z" fill="#868581"/>
<path d="M65.3852 29.6593C65.4964 29.6593 65.6076 29.6593 65.7222 29.6593C65.8369 30.1911 65.8369 30.1911 65.9539 30.7336C66.341 32.0886 67.0218 32.7673 68.0815 33.7037C69.7666 35.3889 69.7666 35.3889 70.5882 36.2315C71.4526 37.1059 71.4526 37.1059 72.5051 37.8956C73.5156 38.7963 73.967 39.5438 74.4852 40.7815C74.2627 40.7815 74.0403 40.7815 73.8111 40.7815C73.8111 40.5591 73.8111 40.3366 73.8111 40.1074C73.255 39.9962 72.6989 39.885 72.1259 39.7704C72.105 39.5619 72.0842 39.3533 72.0627 39.1385C71.9723 38.9021 71.882 38.6658 71.7889 38.4223C71.5178 38.3249 71.2467 38.2276 70.9673 38.1274C70.5398 37.9397 70.5398 37.9397 70.1037 37.7482C69.9994 37.4145 69.8951 37.0809 69.7877 36.7371C69.6695 36.4034 69.5514 36.0697 69.4296 35.726C68.4125 35.2367 68.4125 35.2367 67.4074 35.0519C67.4074 35.3856 67.4074 35.7192 67.4074 36.063C67.6298 36.063 67.8523 36.063 68.0815 36.063C67.9146 36.8972 67.9146 36.8972 67.7444 37.7482C67.522 37.7482 67.2995 37.7482 67.0703 37.7482C67.0703 38.0819 67.0703 38.4155 67.0703 38.7593C66.8479 38.7593 66.6255 38.7593 66.3963 38.7593C65.8499 38.205 65.8499 38.205 65.2377 37.4743C64.5275 36.6323 63.8171 35.8189 63.0259 35.0519C62.0376 35.4972 61.3452 35.9775 60.5876 36.7502C60.3943 36.9458 60.201 37.1413 60.0018 37.3427C59.8041 37.546 59.6064 37.7493 59.4027 37.9588C59.1999 38.1648 58.997 38.3707 58.7879 38.5829C58.2892 39.0896 57.7925 39.5983 57.2963 40.1074C57.185 39.7738 57.0738 39.4401 56.9592 39.0963C57.5603 38.0745 57.8341 37.7936 58.9815 37.4112C59.0927 37.0775 59.2039 36.7438 59.3185 36.4C59.5409 36.4 59.7634 36.4 59.9926 36.4C59.9926 36.1776 59.9926 35.9552 59.9926 35.726C60.215 35.726 60.4375 35.726 60.6666 35.726C60.6666 35.5035 60.6666 35.2811 60.6666 35.0519C61.0003 35.0519 61.334 35.0519 61.6777 35.0519C61.6777 34.7182 61.6777 34.3846 61.6777 34.0408C62.2462 33.2929 62.6631 33.0391 63.5525 32.7137C64.4072 32.4293 64.4072 32.4293 64.7953 31.7237C65.0367 31.0398 65.2332 30.3682 65.3852 29.6593Z" fill="#908982"/>
<path d="M55.6112 66.0592C55.9482 66.7333 55.9482 66.7333 55.7376 67.5759C55.1582 68.6292 54.6892 68.6976 53.5889 69.0925C53.4777 69.4262 53.3665 69.7599 53.2519 70.1036C53.0295 70.1036 52.807 70.1036 52.5778 70.1036C52.6891 70.3608 52.8003 70.6181 52.9149 70.883C53.2519 71.7888 53.2519 71.7888 53.2519 72.7999C52.9182 72.7999 52.5846 72.7999 52.2408 72.7999C52.1296 72.3551 52.0184 71.9102 51.9038 71.4518C51.5701 71.4518 51.2364 71.4518 50.8926 71.4518C50.8926 71.8967 50.8926 72.3416 50.8926 72.7999C49.7804 72.7999 48.6682 72.7999 47.5223 72.7999C48.6156 71.4582 49.9429 70.8845 51.4851 70.1866C52.3379 69.7881 52.3379 69.7881 52.9149 68.7555C53.1373 68.7555 53.3598 68.7555 53.5889 68.7555C53.6202 68.4635 53.6202 68.4635 53.6521 68.1657C54.0339 67.1084 54.7153 66.7024 55.6112 66.0592Z" fill="#858479"/>
<path d="M70.1037 26.626C71.9012 28.4235 73.6988 30.221 75.4963 32.0186C74.2357 32.0186 73.9956 31.7037 73.0738 30.8811C72.8327 30.6699 72.5916 30.4588 72.3432 30.2412C71.7889 29.6593 71.7889 29.6593 71.7889 28.9852C71.344 28.874 70.8991 28.7628 70.4407 28.6482C70.4407 28.4258 70.4407 28.2033 70.4407 27.9741C69.2286 29.1516 68.1373 30.3708 67.0704 31.6815C67.54 32.8164 68.0744 33.362 69.0926 34.0408C68.9814 34.3745 68.8702 34.7081 68.7556 35.0519C67.7546 33.9397 66.7536 32.8275 65.7222 31.6815C66.4054 30.3151 66.9648 29.7535 68.1026 28.7746C69.2667 27.8289 69.2667 27.8289 70.1037 26.626Z" fill="#E8D76C"/>
<path d="M33.7037 68.7556C33.9261 68.8668 34.1486 68.9781 34.3778 69.0927C34.2561 69.3737 34.1345 69.6548 34.0091 69.9445C33.0686 72.2252 32.3735 74.0345 32.6926 76.5075C33.2259 77.243 33.5228 77.4847 34.4212 77.6529C36.5769 77.6321 38.4165 77.2324 40.4444 76.5075C40.3332 76.9524 40.222 77.3972 40.1074 77.8556C39.5339 77.9286 39.5339 77.9286 38.9488 78.0031C37.8129 78.0618 37.8129 78.0618 37.4111 78.5297C36.8084 78.5719 36.2037 78.5889 35.5995 78.5929C35.2702 78.5977 34.9409 78.6024 34.6016 78.6074C33.7037 78.5297 33.7037 78.5297 32.6926 77.8556C32.6926 77.6332 32.6926 77.4107 32.6926 77.1815C32.4701 77.1815 32.2477 77.1815 32.0185 77.1815C31.888 74.053 31.9297 71.4167 33.7037 68.7556Z" fill="#948864"/>
<path d="M34.7148 67.7444C34.826 67.7444 34.9372 67.7444 35.0518 67.7444C35.2305 69.1736 35.028 69.8958 34.2092 71.0305C33.1444 72.5947 33.1476 73.9929 33.3667 75.8333C33.4779 76.2782 33.5891 76.7231 33.7037 77.1814C35.4832 77.0702 37.2628 76.959 39.0963 76.8444C38.0215 77.9192 36.8663 77.918 35.3889 77.9608C34.2976 77.9415 33.7894 77.9025 32.819 77.371C32.1097 76.0492 32.1086 74.9143 32.3555 73.474C32.9832 71.4961 33.7599 69.5872 34.7148 67.7444Z" fill="#EDD061"/>
<path d="M67.4073 35.0519C68.6896 35.2351 69.2975 35.7363 70.1036 36.7371C70.3564 37.6639 70.3564 37.6639 70.4407 38.4223C70.107 38.4223 69.7733 38.4223 69.4296 38.4223C69.4296 38.8671 69.4296 39.312 69.4296 39.7704C69.2071 39.7704 68.9847 39.7704 68.7555 39.7704C68.7555 39.548 68.7555 39.3255 68.7555 39.0963C68.1994 38.9851 67.6433 38.8739 67.0703 38.7593C67.0703 38.4256 67.0703 38.092 67.0703 37.7482C67.2928 37.7482 67.5152 37.7482 67.7444 37.7482C67.8556 37.1921 67.9668 36.636 68.0814 36.063C67.859 36.063 67.6365 36.063 67.4073 36.063C67.4073 35.7293 67.4073 35.3957 67.4073 35.0519Z" fill="#828785"/>
<path d="M42.1297 63.7C42.5167 64.9533 42.5167 64.9533 42.0665 65.8064C41.8649 66.1123 41.6633 66.4182 41.4556 66.7333C40.9909 67.6245 40.5488 68.5266 40.1074 69.4296C39.885 69.4296 39.6625 69.4296 39.4334 69.4296C39.4334 69.8745 39.4334 70.3194 39.4334 70.7777C39.9895 70.7777 40.5456 70.7777 41.1185 70.7777C40.0651 71.6691 39.0667 72.0733 37.7482 72.4629C39.0499 69.4526 40.5642 66.5784 42.1297 63.7Z" fill="#9B8A5D"/>
<path d="M73.8112 41.4556C74.1448 41.5668 74.4785 41.678 74.8223 41.7926C74.8223 42.2375 74.8223 42.6824 74.8223 43.1408C75.2672 43.0295 75.712 42.9183 76.1704 42.8037C75.8368 43.3042 75.8368 43.3042 75.4963 43.8148C75.2739 43.8148 75.0515 43.8148 74.8223 43.8148C74.8223 44.2597 74.8223 44.7046 74.8223 45.163C74.2662 45.163 73.71 45.163 73.1371 45.163C72.7158 44.2572 72.7158 44.2572 72.463 43.1408C73.095 42.1718 73.095 42.1718 73.8112 41.4556Z" fill="#858184"/>
<path d="M63.3629 33.0297C62.0793 35.8388 59.4682 37.9799 57.2963 40.1074C57.185 39.7738 57.0738 39.4401 56.9592 39.0963C57.5603 38.0745 57.8341 37.7936 58.9815 37.4111C59.0927 37.0775 59.2039 36.7438 59.3185 36.4C59.5409 36.4 59.7634 36.4 59.9926 36.4C59.9926 36.1776 59.9926 35.9551 59.9926 35.726C60.215 35.726 60.4375 35.726 60.6666 35.726C60.6666 35.5035 60.6666 35.2811 60.6666 35.0519C61.0003 35.0519 61.334 35.0519 61.6777 35.0519C61.6777 34.7182 61.6777 34.3846 61.6777 34.0408C62.5016 33.0297 62.5016 33.0297 63.3629 33.0297Z" fill="#918369"/>
<path d="M72.8 48.1963C72.8 49.2074 72.8 49.2074 72.3313 49.7511C72.1245 49.9401 71.9177 50.1291 71.7046 50.3238C70.6503 51.3293 69.8838 52.3611 69.0926 53.5889C68.1466 54.7179 67.5301 55.1106 66.0593 55.2741C67.2422 53.8635 68.4486 52.5171 69.7667 51.2296C70.3078 50.6894 70.8484 50.1487 71.3887 49.6076C71.8591 49.1372 72.3296 48.6667 72.8 48.1963Z" fill="#FBF5C9"/>
<path d="M48.8704 66.3964C48.9816 66.73 49.0928 67.0637 49.2074 67.4075C48.0568 68.374 46.875 68.8589 45.5 69.4297C45.3888 69.5409 45.2776 69.6521 45.163 69.7667C44.6014 69.7804 44.0393 69.7811 43.4778 69.7667C43.4778 69.9892 43.4778 70.2116 43.4778 70.4408C43.1441 70.4408 42.8105 70.4408 42.4667 70.4408C42.4667 70.6633 42.4667 70.8857 42.4667 71.1149C42.0218 71.0037 41.5769 70.8924 41.1185 70.7778C43.3435 69.4512 45.5707 68.1765 47.9054 67.052C48.5212 66.7804 48.5212 66.7804 48.8704 66.3964Z" fill="#E8C568"/>
<path d="M50.8926 46.5111C51.0038 46.8448 51.115 47.1784 51.2296 47.5222C50.896 47.6334 50.5623 47.7447 50.2185 47.8593C49.9714 48.5384 49.9714 48.5384 49.8815 49.2074C49.5478 49.2074 49.2141 49.2074 48.8704 49.2074C48.787 49.4785 48.7035 49.7496 48.6176 50.0289C48.1963 50.8926 48.1963 50.8926 47.4801 51.1664C47.2716 51.1873 47.063 51.2081 46.8481 51.2296C46.8481 51.5633 46.8481 51.897 46.8481 52.2407C46.4033 52.1295 45.9584 52.0183 45.5 51.9037C47.2975 50.1062 49.0951 48.3086 50.8926 46.5111Z" fill="#E5CA61"/>
<path d="M57.9704 62.0148C58.4153 62.126 58.8602 62.2372 59.3186 62.3518C58.8551 63.0259 58.8551 63.0259 58.3074 63.7C58.085 63.7 57.8626 63.7 57.6334 63.7C57.5473 63.8998 57.4613 64.0997 57.3727 64.3056C56.9195 65.1196 56.4564 65.5577 55.7375 66.1435C55.5247 66.319 55.3118 66.4945 55.0924 66.6754C54.9299 66.8057 54.7674 66.936 54.6 67.0703C54.7113 66.403 54.8225 65.7357 54.9371 65.0481C55.4932 64.9369 56.0493 64.8257 56.6223 64.7111C56.657 64.5164 56.6918 64.3218 56.7276 64.1213C56.9923 63.2549 57.3991 62.7102 57.9704 62.0148Z" fill="#EBD357"/>
<path d="M55.6111 66.0592C55.9481 66.7333 55.9481 66.7333 55.7375 67.5759C55.1582 68.6292 54.6891 68.6976 53.5889 69.0925C53.4777 69.4262 53.3664 69.7599 53.2518 70.1036C52.4514 70.6935 52.4514 70.6935 51.5667 71.1148C51.233 71.0035 50.8993 70.8923 50.5555 70.7777C50.8197 70.6317 51.0838 70.4858 51.356 70.3354C52.3139 69.8029 52.3139 69.8029 52.9148 68.7555C53.1372 68.7555 53.3597 68.7555 53.5889 68.7555C53.6097 68.5609 53.6306 68.3662 53.6521 68.1657C54.0339 67.1084 54.7152 66.7024 55.6111 66.0592Z" fill="#978D64"/>
<path d="M69.0926 35.0519C69.2394 35.1783 69.3863 35.3047 69.5376 35.435C69.7383 35.6075 69.939 35.78 70.1458 35.9577C70.3605 36.1432 70.5751 36.3287 70.7962 36.5198C71.198 36.8595 71.6058 37.1923 72.0232 37.5125C73.255 38.4627 73.8861 39.3504 74.4852 40.7815C74.2627 40.7815 74.0403 40.7815 73.8111 40.7815C73.8111 40.5591 73.8111 40.3366 73.8111 40.1074C73.255 39.9962 72.6989 39.885 72.1259 39.7704C72.1051 39.5619 72.0842 39.3533 72.0627 39.1385C71.9272 38.7839 71.9272 38.7839 71.7889 38.4223C71.3927 38.2763 71.3927 38.2763 70.9884 38.1273C70.1037 37.7482 70.1037 37.7482 69.4928 36.7371C69.0926 35.726 69.0926 35.726 69.0926 35.0519Z" fill="#9A9065"/>
<path d="M74.8222 46.1741C75.0447 46.2853 75.2671 46.3965 75.4963 46.5111C75.4963 46.956 75.4963 47.4009 75.4963 47.8593C74.7656 48.3398 74.7656 48.3398 73.8111 48.8704C73.1993 49.4375 72.6026 50.0212 72.0206 50.6187C71.723 50.9224 71.4254 51.2261 71.1188 51.539C70.895 51.7706 70.6713 52.0022 70.4407 52.2407C70.4407 51.2296 70.4407 51.2296 70.9213 50.674C71.1311 50.482 71.341 50.29 71.5572 50.0921C72.5076 49.1856 73.1702 48.3389 73.8111 47.1852C74.3799 46.5743 74.3799 46.5743 74.8222 46.1741Z" fill="#FDF9E5"/>
<path d="M45.163 52.2407C45.163 53.5259 44.814 54.1781 44.1519 55.2741C43.6004 55.6276 43.038 55.9647 42.4667 56.2852C42.0008 56.8333 41.5502 57.3949 41.1185 57.9704C40.7875 58.3132 40.453 58.6532 40.1074 58.9815C40.1074 57.6333 40.1074 57.6333 40.6854 56.9355C41.0562 56.5928 41.0562 56.5928 41.4345 56.243C42.4228 55.3542 42.4228 55.3542 43.1408 54.2629C43.3632 54.2629 43.5856 54.2629 43.8148 54.2629C43.9608 53.9501 43.9608 53.9501 44.1097 53.631C44.4889 52.9148 44.4889 52.9148 45.163 52.2407Z" fill="#E8CB63"/>
<path d="M55.6112 40.4445C55.9448 40.5557 56.2785 40.6669 56.6223 40.7815C55.0755 42.626 53.5492 44.442 51.5667 45.8371C51.5667 45.3922 51.5667 44.9473 51.5667 44.4889C51.9004 44.4889 52.234 44.4889 52.5778 44.4889C52.689 43.9328 52.8003 43.3767 52.9149 42.8037C53.2485 42.8037 53.5822 42.8037 53.926 42.8037C54.0372 42.4701 54.1484 42.1364 54.263 41.7926C54.4855 41.7926 54.7079 41.7926 54.9371 41.7926C54.9371 41.4589 54.9371 41.1253 54.9371 40.7815C55.1595 40.6703 55.382 40.5591 55.6112 40.4445Z" fill="#93806A"/>
<path d="M56.2852 40.7815C56.3965 41.1152 56.5077 41.4488 56.6223 41.7926C56.2886 42.2931 56.2886 42.2931 55.9482 42.8037C55.7257 42.8037 55.5033 42.8037 55.2741 42.8037C55.195 43.0001 55.116 43.1965 55.0345 43.3988C54.5018 44.3222 53.8943 44.7821 53.0412 45.4158C52.7658 45.6226 52.4904 45.8294 52.2066 46.0424C51.9954 46.1971 51.7843 46.3518 51.5667 46.5111C51.4555 46.2887 51.3443 46.0662 51.2297 45.837C51.5147 45.6146 51.7997 45.3922 52.0933 45.163C53.2211 44.2281 54.154 43.1667 55.1003 42.052C55.6112 41.4556 55.6112 41.4556 56.2852 40.7815Z" fill="#E5CB5C"/>
<path d="M46.5111 64.037C47.4034 64.9058 48.1775 65.694 48.8704 66.7333C46.0858 68.6058 46.0858 68.6058 44.4889 68.7555C44.4889 68.5331 44.4889 68.3106 44.4889 68.0814C44.9338 68.0814 45.3787 68.0814 45.837 68.0814C45.837 67.7478 45.837 67.4141 45.837 67.0703C46.3932 67.0703 46.9493 67.0703 47.5222 67.0703C47.418 66.8201 47.3137 66.5698 47.2063 66.312C46.9124 65.5513 46.6875 64.8307 46.5111 64.037Z" fill="#918960"/>
<path d="M70.1037 26.626C71.9012 28.4235 73.6988 30.221 75.4963 32.0186C74.2357 32.0186 73.9955 31.7037 73.0738 30.8811C72.8327 30.6699 72.5916 30.4588 72.3432 30.2412C71.7889 29.6593 71.7889 29.6593 71.7889 28.9852C71.5803 28.9574 71.3718 28.9296 71.1569 28.901C70.4407 28.6482 70.4407 28.6482 69.9984 27.9952C69.9219 27.7658 69.8454 27.5364 69.7667 27.3001C69.8779 27.0776 69.9891 26.8552 70.1037 26.626Z" fill="#E9CC6D"/>
<path d="M80.8889 40.1074C81.1114 40.7157 81.1114 40.7157 81.2259 41.4556C80.4647 42.6936 79.3896 43.4021 78.0662 43.9412C77.7742 44.0107 77.4823 44.0802 77.1815 44.1519C78.3641 42.7416 79.5679 41.3896 80.8889 40.1074Z" fill="#FDF5D2"/>
<path d="M41.7925 62.0148C42.1262 62.0148 42.4599 62.0148 42.8037 62.0148C42.6078 63.2821 42.2469 64.2157 41.603 65.3219C41.4496 65.5883 41.2962 65.8546 41.1382 66.129C41.0205 66.3284 40.9027 66.5278 40.7814 66.7333C40.349 65.4359 40.422 64.3918 40.4444 63.0259C40.7781 63.1927 40.7781 63.1927 41.1185 63.3629C41.1185 63.5854 41.1185 63.8078 41.1185 64.037C41.3409 64.037 41.5634 64.037 41.7925 64.037C41.7925 63.3697 41.7925 62.7023 41.7925 62.0148Z" fill="#F0CD5D"/>
<path d="M43.1408 54.937C42.9335 55.1403 42.7263 55.3436 42.5128 55.5531C42.2404 55.8225 41.9679 56.0919 41.6873 56.3694C41.4175 56.6353 41.1477 56.9012 40.8697 57.1751C40.2128 57.8604 39.6443 58.5453 39.0963 59.3185C39.0963 58.6511 39.0963 57.9838 39.0963 57.2962C39.43 57.2962 39.7636 57.2962 40.1074 57.2962C40.1074 57.0738 40.1074 56.8514 40.1074 56.6222C40.3299 56.6222 40.5523 56.6222 40.7815 56.6222C40.8927 56.0661 41.0039 55.5099 41.1185 54.937C42.1296 54.5999 42.1296 54.5999 43.1408 54.937Z" fill="#988968"/>
<path d="M37.0741 63.363C37.6625 64.4471 37.8171 65.1561 37.7482 66.3964C37.5257 66.3964 37.3033 66.3964 37.0741 66.3964C36.9629 66.1739 36.8517 65.9515 36.7371 65.7223C36.2922 66.3896 35.8473 67.057 35.3889 67.7445C35.2777 67.5221 35.1665 67.2996 35.0519 67.0704C35.4613 66.1936 35.4613 66.1936 36.0419 65.1746C36.328 64.6676 36.328 64.6676 36.6199 64.1503C36.7698 63.8905 36.9197 63.6307 37.0741 63.363Z" fill="#EDCA5C"/>
<path d="M67.0703 38.7593C67.9045 38.9261 67.9045 38.9261 68.7555 39.0963C68.7555 39.3188 68.7555 39.5412 68.7555 39.7704C69.2004 39.8816 69.6453 39.9928 70.1036 40.1074C70.1036 40.6635 70.1036 41.2196 70.1036 41.7926C68.6609 41.2583 67.9819 40.2865 67.0703 39.0963C67.0703 38.9851 67.0703 38.8739 67.0703 38.7593Z" fill="#948574"/>
<path d="M87.2926 33.7037C87.2926 35.0854 86.7793 35.654 85.9445 36.7371C85.0597 37.3901 85.0597 37.3901 84.2593 37.7482C84.0368 37.637 83.8144 37.5257 83.5852 37.4111C84.8086 36.1877 86.0321 34.9643 87.2926 33.7037Z" fill="#F8FAE6"/>
<path d="M70.1037 41.7926C70.4374 41.9038 70.771 42.015 71.1148 42.1296C71.1148 42.3521 71.1148 42.5745 71.1148 42.8037C71.4485 42.8037 71.7821 42.8037 72.1259 42.8037C72.2371 42.47 72.3484 42.1364 72.463 41.7926C73.137 42.8037 73.137 42.8037 73.137 44.1519C73.0258 44.3743 72.9146 44.5968 72.8 44.8259C72.4116 44.5126 72.026 44.196 71.6414 43.878C71.3188 43.6141 71.3188 43.6141 70.9897 43.3448C70.4407 42.8037 70.4407 42.8037 70.1037 41.7926Z" fill="#90866A"/>
<path d="M45.5 73.8112C45.5 74.0336 45.5 74.256 45.5 74.4852C43.9423 75.784 42.4486 76.3822 40.4445 76.5075C40.955 75.4864 41.7725 75.2774 42.7827 74.7801C43.1472 74.5985 43.5117 74.4169 43.8872 74.2298C44.8259 73.8112 44.8259 73.8112 45.5 73.8112Z" fill="#94865D"/>
<path d="M60.3296 36.7371C60.3296 37.9587 60.0179 38.4489 59.3185 39.4334C58.9848 39.5446 58.6512 39.6558 58.3074 39.7704C57.7455 40.2759 57.7455 40.2759 57.2963 40.7815C57.0738 40.6703 56.8514 40.5591 56.6222 40.4445C57.8456 39.221 59.0691 37.9976 60.3296 36.7371Z" fill="#EACD62"/>
<path d="M67.0704 35.7258C67.404 35.8371 67.7377 35.9483 68.0815 36.0629C67.9703 36.619 67.859 37.1751 67.7445 37.7481C67.522 37.7481 67.2996 37.7481 67.0704 37.7481C67.0704 38.0817 67.0704 38.4154 67.0704 38.7592C66.8479 38.7592 66.6255 38.7592 66.3963 38.7592C66.1739 38.3143 65.9514 37.8694 65.7222 37.411C66.0559 37.411 66.3896 37.411 66.7333 37.411C66.8446 36.8549 66.9558 36.2988 67.0704 35.7258Z" fill="#898571"/>
<path d="M44.4889 51.2297C44.8226 51.5634 45.1562 51.8971 45.5 52.2408C44.9439 52.9082 44.3878 53.5755 43.8148 54.2631C43.5924 53.9294 43.3699 53.5957 43.1407 53.252C43.5289 52.4202 43.8309 51.8877 44.4889 51.2297Z" fill="#8D846D"/>
<path d="M39.4333 67.4075C39.6558 67.4075 39.8782 67.4075 40.1074 67.4075C39.489 69.0051 38.7864 70.5635 38.0852 72.126C37.5686 70.5797 38.0754 69.8411 38.7593 68.4186C38.9817 68.4186 39.2042 68.4186 39.4333 68.4186C39.4333 68.0849 39.4333 67.7512 39.4333 67.4075Z" fill="#EDCB65"/>
<path d="M52.9149 67.7444C53.1373 67.8556 53.3597 67.9668 53.5889 68.0814C53.5889 68.3039 53.5889 68.5263 53.5889 68.7555C51.7031 70.4407 51.7031 70.4407 51.2297 70.4407C51.2297 69.8846 51.2297 69.3285 51.2297 68.7555C51.7858 68.6443 52.3419 68.5331 52.9149 68.4185C52.9149 68.196 52.9149 67.9736 52.9149 67.7444Z" fill="#F4D254"/>
<path d="M48.1963 72.4629C46.8616 73.1303 45.527 73.7976 44.1519 74.4852C44.0406 74.2627 43.9294 74.0403 43.8148 73.8111C44.0373 73.8111 44.2597 73.8111 44.4889 73.8111C44.4889 73.5886 44.4889 73.3662 44.4889 73.137C44.9338 73.137 45.3787 73.137 45.837 73.137C45.837 72.9146 45.837 72.6921 45.837 72.4629C46.8516 72.1481 47.1402 72.1109 48.1963 72.4629Z" fill="#E0CB62"/>
<path d="M69.4296 27.637C69.6521 27.7482 69.8745 27.8594 70.1037 27.974C69.3252 28.8638 68.5466 29.7536 67.7444 30.6703C67.6332 30.2254 67.522 29.7805 67.4074 29.3221C68.0747 28.766 68.7421 28.2099 69.4296 27.637Z" fill="#F5DB64"/>
<path d="M42.1296 63.7C42.3258 64.3227 42.3258 64.3227 42.4667 65.0481C42.0243 65.8696 42.0243 65.8696 41.4556 66.7333C41.2202 67.2906 40.9921 67.8513 40.7815 68.4185C40.6703 68.4185 40.559 68.4185 40.4445 68.4185C40.3471 67.0483 40.5864 66.2848 41.287 65.1113C41.4435 64.845 41.5999 64.5786 41.761 64.3042C41.9435 64.0051 41.9435 64.0051 42.1296 63.7Z" fill="#8F8566"/>
<path d="M48.8704 66.3964C48.9816 66.73 49.0928 67.0637 49.2074 67.4075C48.154 68.2988 47.1556 68.7031 45.837 69.0927C46.2339 67.9021 46.4963 67.7907 47.5433 67.1758C47.7905 67.0285 48.0377 66.8812 48.2924 66.7294C48.4831 66.6195 48.6739 66.5096 48.8704 66.3964Z" fill="#EDCF57"/>
<path d="M43.4778 61.3407C43.7002 61.3407 43.9227 61.3407 44.1519 61.3407C44.6995 62.1833 44.6995 62.1833 45.163 63.0259C44.8293 63.1371 44.4956 63.2483 44.1519 63.3629C44.0406 63.0293 43.9294 62.6956 43.8148 62.3518C43.5924 62.3518 43.3699 62.3518 43.1407 62.3518C43.1407 62.6855 43.1407 63.0191 43.1407 63.3629C42.9183 63.2517 42.6959 63.1405 42.4667 63.0259C42.9301 62.1833 42.9301 62.1833 43.4778 61.3407Z" fill="#9A8465"/>
<path d="M86.2815 33.3667C86.5039 33.7004 86.7264 34.034 86.9556 34.3778C86.177 35.0451 85.3985 35.7125 84.5963 36.4C84.3739 36.2888 84.1514 36.1776 83.9222 36.063C84.2593 35.3889 84.2593 35.3889 84.9123 35.094C85.749 34.6376 85.9339 34.2357 86.2815 33.3667Z" fill="#8B8E7F"/>
<path d="M41.7926 74.4852C42.3487 74.4852 42.9048 74.4852 43.4778 74.4852C42.6252 75.5272 41.7169 75.8028 40.4445 76.1704C40.5557 75.8367 40.6669 75.5031 40.7815 75.1593C41.1152 75.1593 41.4488 75.1593 41.7926 75.1593C41.7926 74.9369 41.7926 74.7144 41.7926 74.4852Z" fill="#ECCC5E"/>
<path d="M60.6667 59.3186C61.1116 59.4298 61.5565 59.541 62.0148 59.6556C61.2363 60.4342 60.4577 61.2128 59.6556 62.0149C59.5444 61.6812 59.4331 61.3476 59.3185 61.0038C59.6522 60.7813 59.9859 60.5589 60.3297 60.3297C60.4409 59.996 60.5521 59.6624 60.6667 59.3186Z" fill="#EAD258"/>
<path d="M70.1037 35.7258C70.6598 35.7258 71.2159 35.7258 71.7889 35.7258C71.9001 36.3932 72.0113 37.0605 72.1259 37.7481C71.4389 37.3187 70.7648 36.8682 70.1037 36.3999C70.1037 36.1775 70.1037 35.955 70.1037 35.7258Z" fill="#EDCB5A"/>
<path d="M66.0593 53.5889C66.5042 53.7001 66.949 53.8113 67.4074 53.9259C66.2396 54.9269 66.2396 54.9269 65.0482 55.9481C65.0482 55.6145 65.0482 55.2808 65.0482 54.937C65.2706 54.937 65.493 54.937 65.7222 54.937C65.8335 54.4921 65.9447 54.0472 66.0593 53.5889Z" fill="#EFD85D"/>
<path d="M46.5111 49.2074C47.0672 49.2074 47.6233 49.2074 48.1962 49.2074C47.6401 49.8747 47.084 50.5421 46.5111 51.2296C46.1319 49.9657 46.1319 49.9657 46.5111 49.2074Z" fill="#8E8370"/>
<path d="M74.8222 40.7815C75.1559 40.9483 75.1559 40.9483 75.4963 41.1185C75.4963 41.341 75.4963 41.5634 75.4963 41.7926C75.8299 41.9038 76.1636 42.015 76.5074 42.1296C76.5074 42.3521 76.5074 42.5745 76.5074 42.8037C75.9513 42.9149 75.3952 43.0262 74.8222 43.1408C74.8222 42.3622 74.8222 41.5836 74.8222 40.7815Z" fill="#908A70"/>
<path d="M63.7 33.7037C63.9224 33.815 64.1448 33.9262 64.374 34.0408C64.5113 34.8232 64.6249 35.6103 64.7111 36.4C64.155 35.9551 63.5988 35.5103 63.0259 35.0519C63.2483 34.607 63.4708 34.1621 63.7 33.7037Z" fill="#86806C"/>
<path d="M49.8815 71.1147C50.104 71.226 50.3264 71.3372 50.5556 71.4518C49.8902 72.302 49.5555 72.4605 48.4702 72.6946C48.001 72.7467 48.001 72.7467 47.5223 72.7999C48.3187 71.9486 48.7574 71.4895 49.8815 71.1147Z" fill="#9E8A62"/>
<path d="M42.4667 71.1148C42.1086 71.6203 42.1086 71.6203 41.4556 72.1259C40.2127 72.1891 40.2127 72.1891 39.0963 72.1259C40.2148 71.0935 40.9674 71.0125 42.4667 71.1148Z" fill="#F8D557"/>
<path d="M37.0741 62.3519C37.4111 63.363 37.4111 63.363 37.1491 63.9779C36.7871 64.5593 36.425 65.1408 36.063 65.7223C35.9518 65.7223 35.8405 65.7223 35.7259 65.7223C35.5872 64.508 35.6742 64.1099 36.4 63.0892C36.6225 62.8459 36.8449 62.6026 37.0741 62.3519Z" fill="#918663"/>
<path d="M52.9149 43.4778C53.1373 43.4778 53.3597 43.4778 53.5889 43.4778C53.1193 44.6127 52.5849 45.1582 51.5667 45.837C51.5667 45.3922 51.5667 44.9473 51.5667 44.4889C51.9004 44.4889 52.234 44.4889 52.5778 44.4889C52.689 44.1552 52.8003 43.8216 52.9149 43.4778Z" fill="#998C60"/>
<path d="M73.8112 41.4556C74.1448 41.5668 74.4785 41.678 74.8223 41.7926C74.711 42.2375 74.5998 42.6824 74.4852 43.1408C74.1516 43.1408 73.8179 43.1408 73.4741 43.1408C73.5853 42.5846 73.6966 42.0285 73.8112 41.4556Z" fill="#888092"/>
<path d="M66.3963 32.3556C67.0843 32.9002 67.7582 33.463 68.4185 34.0408C68.4185 34.2632 68.4185 34.4857 68.4185 34.7149C67.4074 34.7149 67.4074 34.7149 66.8387 34.2936C66.3963 33.7037 66.3963 33.7037 66.3963 32.3556Z" fill="#9B8B6D"/>
</g>
<defs>
<clipPath id="clip0_109_1600">
<rect width="88.3037" height="91" fill="white"/>
</clipPath>
</defs>
</svg>
